<?xml version="1.0" standalone="no" ?>
<!DOCTYPE svg PUBLIC "-//W3C//DTD SVG 1.1//EN" "http://www.w3.org/Graphics/SVG/1.1/DTD/svg11.dtd">
<svg width="12.000000" height="12.000000" viewBox="0 0 12.000000 12.000000" version="1.1" xmlns="http://www.w3.org/2000/svg">
	<desc>natural-black-handmade-unglazed-cooking-kadai</desc>
	<rect x="0" y="0" width="12.000000" height="12.000000" fill="#ffffff" stroke="none" stroke-width="0" stroke-linecap="square" />
	<g id="bars" fill="#000000" stroke="none" stroke-width="0" stroke-linecap="square">
		<rect x="0.000000" y="0.000000" width="2.896552" height="0.413793" />
		<rect x="3.724138" y="0.000000" width="0.413793" height="0.413793" />
		<rect x="5.379310" y="0.000000" width="0.413793" height="0.413793" />
		<rect x="6.620690" y="0.000000" width="1.655172" height="0.413793" />
		<rect x="9.103448" y="0.000000" width="2.896552" height="0.413793" />
		<rect x="0.000000" y="0.413793" width="0.413793" height="0.413793" />
		<rect x="2.482759" y="0.413793" width="0.413793" height="0.413793" />
		<rect x="3.310345" y="0.413793" width="0.827586" height="0.413793" />
		<rect x="4.551724" y="0.413793" width="0.827586" height="0.413793" />
		<rect x="6.206897" y="0.413793" width="0.827586" height="0.413793" />
		<rect x="8.275862" y="0.413793" width="0.413793" height="0.413793" />
		<rect x="9.103448" y="0.413793" width="0.413793" height="0.413793" />
		<rect x="11.586207" y="0.413793" width="0.413793" height="0.413793" />
		<rect x="0.000000" y="0.827586" width="0.413793" height="0.413793" />
		<rect x="0.827586" y="0.827586" width="1.241379" height="0.413793" />
		<rect x="2.482759" y="0.827586" width="0.413793" height="0.413793" />
		<rect x="3.724138" y="0.827586" width="1.241379" height="0.413793" />
		<rect x="5.793103" y="0.827586" width="0.413793" height="0.413793" />
		<rect x="8.275862" y="0.827586" width="0.413793" height="0.413793" />
		<rect x="9.103448" y="0.827586" width="0.413793" height="0.413793" />
		<rect x="9.931034" y="0.827586" width="1.241379" height="0.413793" />
		<rect x="11.586207" y="0.827586" width="0.413793" height="0.413793" />
		<rect x="0.000000" y="1.241379" width="0.413793" height="0.413793" />
		<rect x="0.827586" y="1.241379" width="1.241379" height="0.413793" />
		<rect x="2.482759" y="1.241379" width="0.413793" height="0.413793" />
		<rect x="3.310345" y="1.241379" width="0.827586" height="0.413793" />
		<rect x="4.551724" y="1.241379" width="0.413793" height="0.413793" />
		<rect x="5.379310" y="1.241379" width="0.827586" height="0.413793" />
		<rect x="7.034483" y="1.241379" width="0.413793" height="0.413793" />
		<rect x="9.103448" y="1.241379" width="0.413793" height="0.413793" />
		<rect x="9.931034" y="1.241379" width="1.241379" height="0.413793" />
		<rect x="11.586207" y="1.241379" width="0.413793" height="0.413793" />
		<rect x="0.000000" y="1.655172" width="0.413793" height="0.413793" />
		<rect x="0.827586" y="1.655172" width="1.241379" height="0.413793" />
		<rect x="2.482759" y="1.655172" width="0.413793" height="0.413793" />
		<rect x="4.137931" y="1.655172" width="0.413793" height="0.413793" />
		<rect x="4.965517" y="1.655172" width="0.827586" height="0.413793" />
		<rect x="6.620690" y="1.655172" width="0.413793" height="0.413793" />
		<rect x="7.862069" y="1.655172" width="0.827586" height="0.413793" />
		<rect x="9.103448" y="1.655172" width="0.413793" height="0.413793" />
		<rect x="9.931034" y="1.655172" width="1.241379" height="0.413793" />
		<rect x="11.586207" y="1.655172" width="0.413793" height="0.413793" />
		<rect x="0.000000" y="2.068966" width="0.413793" height="0.413793" />
		<rect x="2.482759" y="2.068966" width="0.413793" height="0.413793" />
		<rect x="3.310345" y="2.068966" width="0.413793" height="0.413793" />
		<rect x="4.137931" y="2.068966" width="0.413793" height="0.413793" />
		<rect x="5.379310" y="2.068966" width="1.655172" height="0.413793" />
		<rect x="9.103448" y="2.068966" width="0.413793" height="0.413793" />
		<rect x="11.586207" y="2.068966" width="0.413793" height="0.413793" />
		<rect x="0.000000" y="2.482759" width="2.896552" height="0.413793" />
		<rect x="3.310345" y="2.482759" width="0.413793" height="0.413793" />
		<rect x="4.137931" y="2.482759" width="0.413793" height="0.413793" />
		<rect x="4.965517" y="2.482759" width="0.413793" height="0.413793" />
		<rect x="5.793103" y="2.482759" width="0.413793" height="0.413793" />
		<rect x="6.620690" y="2.482759" width="0.413793" height="0.413793" />
		<rect x="7.448276" y="2.482759" width="0.413793" height="0.413793" />
		<rect x="8.275862" y="2.482759" width="0.413793" height="0.413793" />
		<rect x="9.103448" y="2.482759" width="2.896552" height="0.413793" />
		<rect x="4.965517" y="2.896552" width="0.413793" height="0.413793" />
		<rect x="6.620690" y="2.896552" width="0.413793" height="0.413793" />
		<rect x="8.275862" y="2.896552" width="0.413793" height="0.413793" />
		<rect x="0.000000" y="3.310345" width="2.068966" height="0.413793" />
		<rect x="2.482759" y="3.310345" width="2.068966" height="0.413793" />
		<rect x="4.965517" y="3.310345" width="1.241379" height="0.413793" />
		<rect x="7.034483" y="3.310345" width="0.413793" height="0.413793" />
		<rect x="8.689655" y="3.310345" width="0.413793" height="0.413793" />
		<rect x="9.517241" y="3.310345" width="0.413793" height="0.413793" />
		<rect x="10.344828" y="3.310345" width="0.413793" height="0.413793" />
		<rect x="11.172414" y="3.310345" width="0.413793" height="0.413793" />
		<rect x="0.000000" y="3.724138" width="0.827586" height="0.413793" />
		<rect x="2.068966" y="3.724138" width="0.413793" height="0.413793" />
		<rect x="2.896552" y="3.724138" width="0.413793" height="0.413793" />
		<rect x="3.724138" y="3.724138" width="0.413793" height="0.413793" />
		<rect x="6.620690" y="3.724138" width="4.137931" height="0.413793" />
		<rect x="11.586207" y="3.724138" width="0.413793" height="0.413793" />
		<rect x="0.413793" y="4.137931" width="0.413793" height="0.413793" />
		<rect x="1.655172" y="4.137931" width="0.413793" height="0.413793" />
		<rect x="2.482759" y="4.137931" width="1.655172" height="0.413793" />
		<rect x="4.551724" y="4.137931" width="2.896552" height="0.413793" />
		<rect x="8.275862" y="4.137931" width="1.655172" height="0.413793" />
		<rect x="10.344828" y="4.137931" width="0.413793" height="0.413793" />
		<rect x="0.827586" y="4.551724" width="0.413793" height="0.413793" />
		<rect x="3.310345" y="4.551724" width="1.655172" height="0.413793" />
		<rect x="5.793103" y="4.551724" width="0.413793" height="0.413793" />
		<rect x="6.620690" y="4.551724" width="0.413793" height="0.413793" />
		<rect x="7.448276" y="4.551724" width="0.413793" height="0.413793" />
		<rect x="9.103448" y="4.551724" width="0.413793" height="0.413793" />
		<rect x="9.931034" y="4.551724" width="0.827586" height="0.413793" />
		<rect x="11.172414" y="4.551724" width="0.413793" height="0.413793" />
		<rect x="0.000000" y="4.965517" width="0.827586" height="0.413793" />
		<rect x="2.068966" y="4.965517" width="2.068966" height="0.413793" />
		<rect x="4.551724" y="4.965517" width="0.413793" height="0.413793" />
		<rect x="5.379310" y="4.965517" width="0.413793" height="0.413793" />
		<rect x="7.034483" y="4.965517" width="0.413793" height="0.413793" />
		<rect x="8.689655" y="4.965517" width="0.413793" height="0.413793" />
		<rect x="10.344828" y="4.965517" width="0.827586" height="0.413793" />
		<rect x="0.000000" y="5.379310" width="0.827586" height="0.413793" />
		<rect x="1.241379" y="5.379310" width="1.241379" height="0.413793" />
		<rect x="3.724138" y="5.379310" width="0.827586" height="0.413793" />
		<rect x="4.965517" y="5.379310" width="0.827586" height="0.413793" />
		<rect x="6.620690" y="5.379310" width="0.413793" height="0.413793" />
		<rect x="7.448276" y="5.379310" width="2.896552" height="0.413793" />
		<rect x="11.586207" y="5.379310" width="0.413793" height="0.413793" />
		<rect x="0.000000" y="5.793103" width="0.413793" height="0.413793" />
		<rect x="1.241379" y="5.793103" width="0.827586" height="0.413793" />
		<rect x="2.482759" y="5.793103" width="1.241379" height="0.413793" />
		<rect x="5.793103" y="5.793103" width="1.655172" height="0.413793" />
		<rect x="8.275862" y="5.793103" width="0.413793" height="0.413793" />
		<rect x="9.103448" y="5.793103" width="1.241379" height="0.413793" />
		<rect x="10.758621" y="5.793103" width="0.413793" height="0.413793" />
		<rect x="0.413793" y="6.206897" width="0.413793" height="0.413793" />
		<rect x="1.241379" y="6.206897" width="1.241379" height="0.413793" />
		<rect x="4.965517" y="6.206897" width="0.413793" height="0.413793" />
		<rect x="5.793103" y="6.206897" width="0.413793" height="0.413793" />
		<rect x="8.275862" y="6.206897" width="0.413793" height="0.413793" />
		<rect x="9.931034" y="6.206897" width="0.827586" height="0.413793" />
		<rect x="0.413793" y="6.620690" width="0.413793" height="0.413793" />
		<rect x="1.655172" y="6.620690" width="0.413793" height="0.413793" />
		<rect x="2.482759" y="6.620690" width="0.827586" height="0.413793" />
		<rect x="3.724138" y="6.620690" width="0.827586" height="0.413793" />
		<rect x="4.965517" y="6.620690" width="1.655172" height="0.413793" />
		<rect x="7.034483" y="6.620690" width="0.413793" height="0.413793" />
		<rect x="7.862069" y="6.620690" width="0.413793" height="0.413793" />
		<rect x="10.758621" y="6.620690" width="0.827586" height="0.413793" />
		<rect x="0.000000" y="7.034483" width="0.827586" height="0.413793" />
		<rect x="1.655172" y="7.034483" width="0.413793" height="0.413793" />
		<rect x="2.896552" y="7.034483" width="1.655172" height="0.413793" />
		<rect x="5.379310" y="7.034483" width="0.413793" height="0.413793" />
		<rect x="6.620690" y="7.034483" width="3.724138" height="0.413793" />
		<rect x="11.172414" y="7.034483" width="0.827586" height="0.413793" />
		<rect x="0.000000" y="7.448276" width="0.413793" height="0.413793" />
		<rect x="1.241379" y="7.448276" width="0.413793" height="0.413793" />
		<rect x="2.482759" y="7.448276" width="0.413793" height="0.413793" />
		<rect x="3.310345" y="7.448276" width="0.827586" height="0.413793" />
		<rect x="4.551724" y="7.448276" width="1.241379" height="0.413793" />
		<rect x="6.206897" y="7.448276" width="0.827586" height="0.413793" />
		<rect x="8.689655" y="7.448276" width="0.827586" height="0.413793" />
		<rect x="9.931034" y="7.448276" width="0.827586" height="0.413793" />
		<rect x="0.000000" y="7.862069" width="0.413793" height="0.413793" />
		<rect x="2.896552" y="7.862069" width="0.827586" height="0.413793" />
		<rect x="4.137931" y="7.862069" width="0.827586" height="0.413793" />
		<rect x="5.793103" y="7.862069" width="1.241379" height="0.413793" />
		<rect x="7.448276" y="7.862069" width="0.413793" height="0.413793" />
		<rect x="8.275862" y="7.862069" width="0.827586" height="0.413793" />
		<rect x="9.517241" y="7.862069" width="0.413793" height="0.413793" />
		<rect x="10.344828" y="7.862069" width="0.413793" height="0.413793" />
		<rect x="11.172414" y="7.862069" width="0.827586" height="0.413793" />
		<rect x="0.000000" y="8.275862" width="0.413793" height="0.413793" />
		<rect x="0.827586" y="8.275862" width="0.413793" height="0.413793" />
		<rect x="1.655172" y="8.275862" width="1.241379" height="0.413793" />
		<rect x="3.310345" y="8.275862" width="2.896552" height="0.413793" />
		<rect x="7.034483" y="8.275862" width="0.413793" height="0.413793" />
		<rect x="8.275862" y="8.275862" width="2.068966" height="0.413793" />
		<rect x="10.758621" y="8.275862" width="0.413793" height="0.413793" />
		<rect x="11.586207" y="8.275862" width="0.413793" height="0.413793" />
		<rect x="3.310345" y="8.689655" width="0.413793" height="0.413793" />
		<rect x="4.137931" y="8.689655" width="0.413793" height="0.413793" />
		<rect x="4.965517" y="8.689655" width="0.413793" height="0.413793" />
		<rect x="7.448276" y="8.689655" width="0.413793" height="0.413793" />
		<rect x="8.275862" y="8.689655" width="0.413793" height="0.413793" />
		<rect x="9.931034" y="8.689655" width="2.068966" height="0.413793" />
		<rect x="0.000000" y="9.103448" width="2.896552" height="0.413793" />
		<rect x="3.310345" y="9.103448" width="0.413793" height="0.413793" />
		<rect x="6.206897" y="9.103448" width="0.413793" height="0.413793" />
		<rect x="7.448276" y="9.103448" width="1.241379" height="0.413793" />
		<rect x="9.103448" y="9.103448" width="0.413793" height="0.413793" />
		<rect x="9.931034" y="9.103448" width="0.413793" height="0.413793" />
		<rect x="0.000000" y="9.517241" width="0.413793" height="0.413793" />
		<rect x="2.482759" y="9.517241" width="0.413793" height="0.413793" />
		<rect x="4.137931" y="9.517241" width="0.413793" height="0.413793" />
		<rect x="4.965517" y="9.517241" width="0.413793" height="0.413793" />
		<rect x="5.793103" y="9.517241" width="1.241379" height="0.413793" />
		<rect x="7.862069" y="9.517241" width="0.827586" height="0.413793" />
		<rect x="9.931034" y="9.517241" width="0.413793" height="0.413793" />
		<rect x="0.000000" y="9.931034" width="0.413793" height="0.413793" />
		<rect x="0.827586" y="9.931034" width="1.241379" height="0.413793" />
		<rect x="2.482759" y="9.931034" width="0.413793" height="0.413793" />
		<rect x="3.310345" y="9.931034" width="3.310345" height="0.413793" />
		<rect x="7.034483" y="9.931034" width="0.413793" height="0.413793" />
		<rect x="8.275862" y="9.931034" width="2.068966" height="0.413793" />
		<rect x="10.758621" y="9.931034" width="0.413793" height="0.413793" />
		<rect x="11.586207" y="9.931034" width="0.413793" height="0.413793" />
		<rect x="0.000000" y="10.344828" width="0.413793" height="0.413793" />
		<rect x="0.827586" y="10.344828" width="1.241379" height="0.413793" />
		<rect x="2.482759" y="10.344828" width="0.413793" height="0.413793" />
		<rect x="3.310345" y="10.344828" width="0.413793" height="0.413793" />
		<rect x="4.137931" y="10.344828" width="0.827586" height="0.413793" />
		<rect x="6.620690" y="10.344828" width="0.827586" height="0.413793" />
		<rect x="8.275862" y="10.344828" width="0.413793" height="0.413793" />
		<rect x="10.344828" y="10.344828" width="1.655172" height="0.413793" />
		<rect x="0.000000" y="10.758621" width="0.413793" height="0.413793" />
		<rect x="0.827586" y="10.758621" width="1.241379" height="0.413793" />
		<rect x="2.482759" y="10.758621" width="0.413793" height="0.413793" />
		<rect x="3.310345" y="10.758621" width="0.413793" height="0.413793" />
		<rect x="4.137931" y="10.758621" width="0.413793" height="0.413793" />
		<rect x="5.793103" y="10.758621" width="4.965517" height="0.413793" />
		<rect x="11.172414" y="10.758621" width="0.413793" height="0.413793" />
		<rect x="0.000000" y="11.172414" width="0.413793" height="0.413793" />
		<rect x="2.482759" y="11.172414" width="0.413793" height="0.413793" />
		<rect x="3.310345" y="11.172414" width="0.827586" height="0.413793" />
		<rect x="4.965517" y="11.172414" width="0.413793" height="0.413793" />
		<rect x="6.206897" y="11.172414" width="0.827586" height="0.413793" />
		<rect x="7.448276" y="11.172414" width="0.413793" height="0.413793" />
		<rect x="8.275862" y="11.172414" width="0.827586" height="0.413793" />
		<rect x="10.344828" y="11.172414" width="0.413793" height="0.413793" />
		<rect x="11.172414" y="11.172414" width="0.413793" height="0.413793" />
		<rect x="0.000000" y="11.586207" width="2.896552" height="0.413793" />
		<rect x="3.310345" y="11.586207" width="0.413793" height="0.413793" />
		<rect x="4.965517" y="11.586207" width="1.655172" height="0.413793" />
		<rect x="7.034483" y="11.586207" width="0.413793" height="0.413793" />
		<rect x="7.862069" y="11.586207" width="0.413793" height="0.413793" />
		<rect x="9.931034" y="11.586207" width="0.413793" height="0.413793" />
		<rect x="10.758621" y="11.586207" width="0.413793" height="0.413793" />
		<rect x="0.000000" y="0.000000" width="0.413793" height="2.896552" />
		<rect x="0.000000" y="3.310345" width="0.413793" height="0.827586" />
		<rect x="0.000000" y="4.965517" width="0.413793" height="1.241379" />
		<rect x="0.000000" y="7.034483" width="0.413793" height="1.655172" />
		<rect x="0.000000" y="9.103448" width="0.413793" height="2.896552" />
		<rect x="0.413793" y="0.000000" width="0.413793" height="0.413793" />
		<rect x="0.413793" y="2.482759" width="0.413793" height="0.413793" />
		<rect x="0.413793" y="3.310345" width="0.413793" height="1.241379" />
		<rect x="0.413793" y="4.965517" width="0.413793" height="0.827586" />
		<rect x="0.413793" y="6.206897" width="0.413793" height="1.241379" />
		<rect x="0.413793" y="9.103448" width="0.413793" height="0.413793" />
		<rect x="0.413793" y="11.586207" width="0.413793" height="0.413793" />
		<rect x="0.827586" y="0.000000" width="0.413793" height="0.413793" />
		<rect x="0.827586" y="0.827586" width="0.413793" height="1.241379" />
		<rect x="0.827586" y="2.482759" width="0.413793" height="0.413793" />
		<rect x="0.827586" y="3.310345" width="0.413793" height="0.413793" />
		<rect x="0.827586" y="4.551724" width="0.413793" height="0.413793" />
		<rect x="0.827586" y="8.275862" width="0.413793" height="0.413793" />
		<rect x="0.827586" y="9.103448" width="0.413793" height="0.413793" />
		<rect x="0.827586" y="9.931034" width="0.413793" height="1.241379" />
		<rect x="0.827586" y="11.586207" width="0.413793" height="0.413793" />
		<rect x="1.241379" y="0.000000" width="0.413793" height="0.413793" />
		<rect x="1.241379" y="0.827586" width="0.413793" height="1.241379" />
		<rect x="1.241379" y="2.482759" width="0.413793" height="0.413793" />
		<rect x="1.241379" y="3.310345" width="0.413793" height="0.413793" />
		<rect x="1.241379" y="5.379310" width="0.413793" height="1.241379" />
		<rect x="1.241379" y="7.448276" width="0.413793" height="0.413793" />
		<rect x="1.241379" y="9.103448" width="0.413793" height="0.413793" />
		<rect x="1.241379" y="9.931034" width="0.413793" height="1.241379" />
		<rect x="1.241379" y="11.586207" width="0.413793" height="0.413793" />
		<rect x="1.655172" y="0.000000" width="0.413793" height="0.413793" />
		<rect x="1.655172" y="0.827586" width="0.413793" height="1.241379" />
		<rect x="1.655172" y="2.482759" width="0.413793" height="0.413793" />
		<rect x="1.655172" y="3.310345" width="0.413793" height="0.413793" />
		<rect x="1.655172" y="4.137931" width="0.413793" height="0.413793" />
		<rect x="1.655172" y="5.379310" width="0.413793" height="2.068966" />
		<rect x="1.655172" y="8.275862" width="0.413793" height="0.413793" />
		<rect x="1.655172" y="9.103448" width="0.413793" height="0.413793" />
		<rect x="1.655172" y="9.931034" width="0.413793" height="1.241379" />
		<rect x="1.655172" y="11.586207" width="0.413793" height="0.413793" />
		<rect x="2.068966" y="0.000000" width="0.413793" height="0.413793" />
		<rect x="2.068966" y="2.482759" width="0.413793" height="0.413793" />
		<rect x="2.068966" y="3.724138" width="0.413793" height="0.413793" />
		<rect x="2.068966" y="4.965517" width="0.413793" height="0.827586" />
		<rect x="2.068966" y="6.206897" width="0.413793" height="0.413793" />
		<rect x="2.068966" y="8.275862" width="0.413793" height="0.413793" />
		<rect x="2.068966" y="9.103448" width="0.413793" height="0.413793" />
		<rect x="2.068966" y="11.586207" width="0.413793" height="0.413793" />
		<rect x="2.482759" y="0.000000" width="0.413793" height="2.896552" />
		<rect x="2.482759" y="3.310345" width="0.413793" height="0.413793" />
		<rect x="2.482759" y="4.137931" width="0.413793" height="0.413793" />
		<rect x="2.482759" y="4.965517" width="0.413793" height="0.413793" />
		<rect x="2.482759" y="5.793103" width="0.413793" height="0.413793" />
		<rect x="2.482759" y="6.620690" width="0.413793" height="0.413793" />
		<rect x="2.482759" y="7.448276" width="0.413793" height="0.413793" />
		<rect x="2.482759" y="8.275862" width="0.413793" height="0.413793" />
		<rect x="2.482759" y="9.103448" width="0.413793" height="2.896552" />
		<rect x="2.896552" y="3.310345" width="0.413793" height="1.241379" />
		<rect x="2.896552" y="4.965517" width="0.413793" height="0.413793" />
		<rect x="2.896552" y="5.793103" width="0.413793" height="0.413793" />
		<rect x="2.896552" y="6.620690" width="0.413793" height="0.827586" />
		<rect x="2.896552" y="7.862069" width="0.413793" height="0.413793" />
		<rect x="3.310345" y="0.413793" width="0.413793" height="0.413793" />
		<rect x="3.310345" y="1.241379" width="0.413793" height="0.413793" />
		<rect x="3.310345" y="2.068966" width="0.413793" height="0.827586" />
		<rect x="3.310345" y="3.310345" width="0.413793" height="0.413793" />
		<rect x="3.310345" y="4.137931" width="0.413793" height="1.241379" />
		<rect x="3.310345" y="5.793103" width="0.413793" height="0.413793" />
		<rect x="3.310345" y="7.034483" width="0.413793" height="2.482759" />
		<rect x="3.310345" y="9.931034" width="0.413793" height="2.068966" />
		<rect x="3.724138" y="0.000000" width="0.413793" height="1.655172" />
		<rect x="3.724138" y="3.310345" width="0.413793" height="2.482759" />
		<rect x="3.724138" y="6.620690" width="0.413793" height="1.241379" />
		<rect x="3.724138" y="8.275862" width="0.413793" height="0.413793" />
		<rect x="3.724138" y="9.931034" width="0.413793" height="0.413793" />
		<rect x="3.724138" y="11.172414" width="0.413793" height="0.413793" />
		<rect x="4.137931" y="0.827586" width="0.413793" height="0.413793" />
		<rect x="4.137931" y="1.655172" width="0.413793" height="1.241379" />
		<rect x="4.137931" y="3.310345" width="0.413793" height="0.413793" />
		<rect x="4.137931" y="4.551724" width="0.413793" height="0.413793" />
		<rect x="4.137931" y="5.379310" width="0.413793" height="0.413793" />
		<rect x="4.137931" y="6.620690" width="0.413793" height="0.827586" />
		<rect x="4.137931" y="7.862069" width="0.413793" height="1.241379" />
		<rect x="4.137931" y="9.517241" width="0.413793" height="1.655172" />
		<rect x="4.551724" y="0.413793" width="0.413793" height="1.241379" />
		<rect x="4.551724" y="4.137931" width="0.413793" height="1.241379" />
		<rect x="4.551724" y="7.448276" width="0.413793" height="1.241379" />
		<rect x="4.551724" y="9.931034" width="0.413793" height="0.827586" />
		<rect x="4.965517" y="0.413793" width="0.413793" height="0.413793" />
		<rect x="4.965517" y="1.655172" width="0.413793" height="0.413793" />
		<rect x="4.965517" y="2.482759" width="0.413793" height="1.241379" />
		<rect x="4.965517" y="4.137931" width="0.413793" height="0.413793" />
		<rect x="4.965517" y="5.379310" width="0.413793" height="0.413793" />
		<rect x="4.965517" y="6.206897" width="0.413793" height="0.827586" />
		<rect x="4.965517" y="7.448276" width="0.413793" height="0.413793" />
		<rect x="4.965517" y="8.275862" width="0.413793" height="0.827586" />
		<rect x="4.965517" y="9.517241" width="0.413793" height="0.827586" />
		<rect x="4.965517" y="11.172414" width="0.413793" height="0.827586" />
		<rect x="5.379310" y="0.000000" width="0.413793" height="0.413793" />
		<rect x="5.379310" y="1.241379" width="0.413793" height="1.241379" />
		<rect x="5.379310" y="3.310345" width="0.413793" height="0.413793" />
		<rect x="5.379310" y="4.137931" width="0.413793" height="0.413793" />
		<rect x="5.379310" y="4.965517" width="0.413793" height="0.827586" />
		<rect x="5.379310" y="6.620690" width="0.413793" height="1.241379" />
		<rect x="5.379310" y="8.275862" width="0.413793" height="0.413793" />
		<rect x="5.379310" y="9.931034" width="0.413793" height="0.413793" />
		<rect x="5.379310" y="11.586207" width="0.413793" height="0.413793" />
		<rect x="5.793103" y="0.827586" width="0.413793" height="0.827586" />
		<rect x="5.793103" y="2.068966" width="0.413793" height="0.827586" />
		<rect x="5.793103" y="3.310345" width="0.413793" height="0.413793" />
		<rect x="5.793103" y="4.137931" width="0.413793" height="0.827586" />
		<rect x="5.793103" y="5.793103" width="0.413793" height="1.241379" />
		<rect x="5.793103" y="7.862069" width="0.413793" height="0.827586" />
		<rect x="5.793103" y="9.517241" width="0.413793" height="0.827586" />
		<rect x="5.793103" y="10.758621" width="0.413793" height="0.413793" />
		<rect x="5.793103" y="11.586207" width="0.413793" height="0.413793" />
		<rect x="6.206897" y="0.413793" width="0.413793" height="0.413793" />
		<rect x="6.206897" y="2.068966" width="0.413793" height="0.413793" />
		<rect x="6.206897" y="4.137931" width="0.413793" height="0.413793" />
		<rect x="6.206897" y="5.793103" width="0.413793" height="0.413793" />
		<rect x="6.206897" y="6.620690" width="0.413793" height="0.413793" />
		<rect x="6.206897" y="7.448276" width="0.413793" height="0.827586" />
		<rect x="6.206897" y="9.103448" width="0.413793" height="1.241379" />
		<rect x="6.206897" y="10.758621" width="0.413793" height="1.241379" />
		<rect x="6.620690" y="0.000000" width="0.413793" height="0.827586" />
		<rect x="6.620690" y="1.655172" width="0.413793" height="1.655172" />
		<rect x="6.620690" y="3.724138" width="0.413793" height="1.241379" />
		<rect x="6.620690" y="5.379310" width="0.413793" height="0.827586" />
		<rect x="6.620690" y="7.034483" width="0.413793" height="1.241379" />
		<rect x="6.620690" y="9.517241" width="0.413793" height="0.413793" />
		<rect x="6.620690" y="10.344828" width="0.413793" height="1.241379" />
		<rect x="7.034483" y="0.000000" width="0.413793" height="0.413793" />
		<rect x="7.034483" y="1.241379" width="0.413793" height="0.413793" />
		<rect x="7.034483" y="3.310345" width="0.413793" height="1.241379" />
		<rect x="7.034483" y="4.965517" width="0.413793" height="0.413793" />
		<rect x="7.034483" y="5.793103" width="0.413793" height="0.413793" />
		<rect x="7.034483" y="6.620690" width="0.413793" height="0.827586" />
		<rect x="7.034483" y="8.275862" width="0.413793" height="0.413793" />
		<rect x="7.034483" y="9.931034" width="0.413793" height="1.241379" />
		<rect x="7.034483" y="11.586207" width="0.413793" height="0.413793" />
		<rect x="7.448276" y="0.000000" width="0.413793" height="0.413793" />
		<rect x="7.448276" y="2.482759" width="0.413793" height="0.413793" />
		<rect x="7.448276" y="3.724138" width="0.413793" height="0.413793" />
		<rect x="7.448276" y="4.551724" width="0.413793" height="0.413793" />
		<rect x="7.448276" y="5.379310" width="0.413793" height="0.413793" />
		<rect x="7.448276" y="7.034483" width="0.413793" height="0.413793" />
		<rect x="7.448276" y="7.862069" width="0.413793" height="0.413793" />
		<rect x="7.448276" y="8.689655" width="0.413793" height="0.827586" />
		<rect x="7.448276" y="10.758621" width="0.413793" height="0.827586" />
		<rect x="7.862069" y="0.000000" width="0.413793" height="0.413793" />
		<rect x="7.862069" y="1.655172" width="0.413793" height="0.413793" />
		<rect x="7.862069" y="3.724138" width="0.413793" height="0.413793" />
		<rect x="7.862069" y="5.379310" width="0.413793" height="0.413793" />
		<rect x="7.862069" y="6.620690" width="0.413793" height="0.827586" />
		<rect x="7.862069" y="9.103448" width="0.413793" height="0.827586" />
		<rect x="7.862069" y="10.758621" width="0.413793" height="0.413793" />
		<rect x="7.862069" y="11.586207" width="0.413793" height="0.413793" />
		<rect x="8.275862" y="0.413793" width="0.413793" height="0.827586" />
		<rect x="8.275862" y="1.655172" width="0.413793" height="0.413793" />
		<rect x="8.275862" y="2.482759" width="0.413793" height="0.827586" />
		<rect x="8.275862" y="3.724138" width="0.413793" height="0.827586" />
		<rect x="8.275862" y="5.379310" width="0.413793" height="1.241379" />
		<rect x="8.275862" y="7.034483" width="0.413793" height="0.413793" />
		<rect x="8.275862" y="7.862069" width="0.413793" height="3.724138" />
		<rect x="8.689655" y="3.310345" width="0.413793" height="1.241379" />
		<rect x="8.689655" y="4.965517" width="0.413793" height="0.827586" />
		<rect x="8.689655" y="7.034483" width="0.413793" height="1.655172" />
		<rect x="8.689655" y="9.931034" width="0.413793" height="0.413793" />
		<rect x="8.689655" y="10.758621" width="0.413793" height="0.827586" />
		<rect x="9.103448" y="0.000000" width="0.413793" height="2.896552" />
		<rect x="9.103448" y="3.724138" width="0.413793" height="1.241379" />
		<rect x="9.103448" y="5.379310" width="0.413793" height="0.827586" />
		<rect x="9.103448" y="7.034483" width="0.413793" height="0.827586" />
		<rect x="9.103448" y="8.275862" width="0.413793" height="0.413793" />
		<rect x="9.103448" y="9.103448" width="0.413793" height="0.413793" />
		<rect x="9.103448" y="9.931034" width="0.413793" height="0.413793" />
		<rect x="9.103448" y="10.758621" width="0.413793" height="0.413793" />
		<rect x="9.517241" y="0.000000" width="0.413793" height="0.413793" />
		<rect x="9.517241" y="2.482759" width="0.413793" height="0.413793" />
		<rect x="9.517241" y="3.310345" width="0.413793" height="1.241379" />
		<rect x="9.517241" y="5.379310" width="0.413793" height="0.827586" />
		<rect x="9.517241" y="7.034483" width="0.413793" height="0.413793" />
		<rect x="9.517241" y="7.862069" width="0.413793" height="0.827586" />
		<rect x="9.517241" y="9.931034" width="0.413793" height="0.413793" />
		<rect x="9.517241" y="10.758621" width="0.413793" height="0.413793" />
		<rect x="9.931034" y="0.000000" width="0.413793" height="0.413793" />
		<rect x="9.931034" y="0.827586" width="0.413793" height="1.241379" />
		<rect x="9.931034" y="2.482759" width="0.413793" height="0.413793" />
		<rect x="9.931034" y="3.724138" width="0.413793" height="0.413793" />
		<rect x="9.931034" y="4.551724" width="0.413793" height="0.413793" />
		<rect x="9.931034" y="5.379310" width="0.413793" height="1.241379" />
		<rect x="9.931034" y="7.034483" width="0.413793" height="0.827586" />
		<rect x="9.931034" y="8.275862" width="0.413793" height="2.068966" />
		<rect x="9.931034" y="10.758621" width="0.413793" height="0.413793" />
		<rect x="9.931034" y="11.586207" width="0.413793" height="0.413793" />
		<rect x="10.344828" y="0.000000" width="0.413793" height="0.413793" />
		<rect x="10.344828" y="0.827586" width="0.413793" height="1.241379" />
		<rect x="10.344828" y="2.482759" width="0.413793" height="0.413793" />
		<rect x="10.344828" y="3.310345" width="0.413793" height="2.068966" />
		<rect x="10.344828" y="6.206897" width="0.413793" height="0.413793" />
		<rect x="10.344828" y="7.448276" width="0.413793" height="0.827586" />
		<rect x="10.344828" y="8.689655" width="0.413793" height="0.413793" />
		<rect x="10.344828" y="10.344828" width="0.413793" height="1.241379" />
		<rect x="10.758621" y="0.000000" width="0.413793" height="0.413793" />
		<rect x="10.758621" y="0.827586" width="0.413793" height="1.241379" />
		<rect x="10.758621" y="2.482759" width="0.413793" height="0.413793" />
		<rect x="10.758621" y="4.965517" width="0.413793" height="0.413793" />
		<rect x="10.758621" y="5.793103" width="0.413793" height="0.413793" />
		<rect x="10.758621" y="6.620690" width="0.413793" height="0.413793" />
		<rect x="10.758621" y="8.275862" width="0.413793" height="0.827586" />
		<rect x="10.758621" y="9.931034" width="0.413793" height="0.827586" />
		<rect x="10.758621" y="11.586207" width="0.413793" height="0.413793" />
		<rect x="11.172414" y="0.000000" width="0.413793" height="0.413793" />
		<rect x="11.172414" y="2.482759" width="0.413793" height="0.413793" />
		<rect x="11.172414" y="3.310345" width="0.413793" height="0.413793" />
		<rect x="11.172414" y="4.551724" width="0.413793" height="0.413793" />
		<rect x="11.172414" y="6.620690" width="0.413793" height="0.827586" />
		<rect x="11.172414" y="7.862069" width="0.413793" height="0.413793" />
		<rect x="11.172414" y="8.689655" width="0.413793" height="0.413793" />
		<rect x="11.172414" y="10.344828" width="0.413793" height="1.241379" />
		<rect x="11.586207" y="0.000000" width="0.413793" height="2.896552" />
		<rect x="11.586207" y="3.724138" width="0.413793" height="0.413793" />
		<rect x="11.586207" y="5.379310" width="0.413793" height="0.413793" />
		<rect x="11.586207" y="7.034483" width="0.413793" height="0.413793" />
		<rect x="11.586207" y="7.862069" width="0.413793" height="1.241379" />
		<rect x="11.586207" y="9.931034" width="0.413793" height="0.827586" />
	</g>
</svg>
