<?xml version="1.0" standalone="no" ?>
<!DOCTYPE svg PUBLIC "-//W3C//DTD SVG 1.1//EN" "http://www.w3.org/Graphics/SVG/1.1/DTD/svg11.dtd">
<svg width="12.000000" height="12.000000" viewBox="0 0 12.000000 12.000000" version="1.1" xmlns="http://www.w3.org/2000/svg">
	<desc>hazed-monk-longpi-pottery-black-stone-small-with-small-spout</desc>
	<rect x="0" y="0" width="12.000000" height="12.000000" fill="#ffffff" stroke="none" stroke-width="0" stroke-linecap="square" />
	<g id="bars" fill="#000000" stroke="none" stroke-width="0" stroke-linecap="square">
		<rect x="0.000000" y="0.000000" width="2.545455" height="0.363636" />
		<rect x="3.272727" y="0.000000" width="0.363636" height="0.363636" />
		<rect x="5.090909" y="0.000000" width="0.363636" height="0.363636" />
		<rect x="5.818182" y="0.000000" width="1.454545" height="0.363636" />
		<rect x="8.363636" y="0.000000" width="0.363636" height="0.363636" />
		<rect x="9.454545" y="0.000000" width="2.545455" height="0.363636" />
		<rect x="0.000000" y="0.363636" width="0.363636" height="0.363636" />
		<rect x="2.181818" y="0.363636" width="0.363636" height="0.363636" />
		<rect x="2.909091" y="0.363636" width="0.727273" height="0.363636" />
		<rect x="4.000000" y="0.363636" width="0.727273" height="0.363636" />
		<rect x="5.090909" y="0.363636" width="1.090909" height="0.363636" />
		<rect x="7.636364" y="0.363636" width="0.727273" height="0.363636" />
		<rect x="8.727273" y="0.363636" width="0.363636" height="0.363636" />
		<rect x="9.454545" y="0.363636" width="0.363636" height="0.363636" />
		<rect x="11.636364" y="0.363636" width="0.363636" height="0.363636" />
		<rect x="0.000000" y="0.727273" width="0.363636" height="0.363636" />
		<rect x="0.727273" y="0.727273" width="1.090909" height="0.363636" />
		<rect x="2.181818" y="0.727273" width="0.363636" height="0.363636" />
		<rect x="3.272727" y="0.727273" width="1.090909" height="0.363636" />
		<rect x="5.454545" y="0.727273" width="0.727273" height="0.363636" />
		<rect x="7.272727" y="0.727273" width="0.727273" height="0.363636" />
		<rect x="8.363636" y="0.727273" width="0.727273" height="0.363636" />
		<rect x="9.454545" y="0.727273" width="0.363636" height="0.363636" />
		<rect x="10.181818" y="0.727273" width="1.090909" height="0.363636" />
		<rect x="11.636364" y="0.727273" width="0.363636" height="0.363636" />
		<rect x="0.000000" y="1.090909" width="0.363636" height="0.363636" />
		<rect x="0.727273" y="1.090909" width="1.090909" height="0.363636" />
		<rect x="2.181818" y="1.090909" width="0.363636" height="0.363636" />
		<rect x="2.909091" y="1.090909" width="0.727273" height="0.363636" />
		<rect x="4.000000" y="1.090909" width="0.363636" height="0.363636" />
		<rect x="5.454545" y="1.090909" width="1.090909" height="0.363636" />
		<rect x="6.909091" y="1.090909" width="0.363636" height="0.363636" />
		<rect x="8.000000" y="1.090909" width="0.363636" height="0.363636" />
		<rect x="8.727273" y="1.090909" width="0.363636" height="0.363636" />
		<rect x="9.454545" y="1.090909" width="0.363636" height="0.363636" />
		<rect x="10.181818" y="1.090909" width="1.090909" height="0.363636" />
		<rect x="11.636364" y="1.090909" width="0.363636" height="0.363636" />
		<rect x="0.000000" y="1.454545" width="0.363636" height="0.363636" />
		<rect x="0.727273" y="1.454545" width="1.090909" height="0.363636" />
		<rect x="2.181818" y="1.454545" width="0.363636" height="0.363636" />
		<rect x="3.636364" y="1.454545" width="0.363636" height="0.363636" />
		<rect x="4.363636" y="1.454545" width="0.727273" height="0.363636" />
		<rect x="5.818182" y="1.454545" width="0.363636" height="0.363636" />
		<rect x="6.909091" y="1.454545" width="1.090909" height="0.363636" />
		<rect x="8.363636" y="1.454545" width="0.363636" height="0.363636" />
		<rect x="9.454545" y="1.454545" width="0.363636" height="0.363636" />
		<rect x="10.181818" y="1.454545" width="1.090909" height="0.363636" />
		<rect x="11.636364" y="1.454545" width="0.363636" height="0.363636" />
		<rect x="0.000000" y="1.818182" width="0.363636" height="0.363636" />
		<rect x="2.181818" y="1.818182" width="0.363636" height="0.363636" />
		<rect x="2.909091" y="1.818182" width="0.363636" height="0.363636" />
		<rect x="3.636364" y="1.818182" width="0.363636" height="0.363636" />
		<rect x="4.727273" y="1.818182" width="1.818182" height="0.363636" />
		<rect x="7.636364" y="1.818182" width="0.363636" height="0.363636" />
		<rect x="9.454545" y="1.818182" width="0.363636" height="0.363636" />
		<rect x="11.636364" y="1.818182" width="0.363636" height="0.363636" />
		<rect x="0.000000" y="2.181818" width="2.545455" height="0.363636" />
		<rect x="2.909091" y="2.181818" width="0.363636" height="0.363636" />
		<rect x="3.636364" y="2.181818" width="0.363636" height="0.363636" />
		<rect x="4.363636" y="2.181818" width="0.363636" height="0.363636" />
		<rect x="5.090909" y="2.181818" width="0.363636" height="0.363636" />
		<rect x="5.818182" y="2.181818" width="0.363636" height="0.363636" />
		<rect x="6.545455" y="2.181818" width="0.363636" height="0.363636" />
		<rect x="7.272727" y="2.181818" width="0.363636" height="0.363636" />
		<rect x="8.000000" y="2.181818" width="0.363636" height="0.363636" />
		<rect x="8.727273" y="2.181818" width="0.363636" height="0.363636" />
		<rect x="9.454545" y="2.181818" width="2.545455" height="0.363636" />
		<rect x="4.363636" y="2.545455" width="0.727273" height="0.363636" />
		<rect x="5.818182" y="2.545455" width="0.363636" height="0.363636" />
		<rect x="7.272727" y="2.545455" width="1.090909" height="0.363636" />
		<rect x="0.000000" y="2.909091" width="1.818182" height="0.363636" />
		<rect x="2.181818" y="2.909091" width="1.818182" height="0.363636" />
		<rect x="4.363636" y="2.909091" width="0.363636" height="0.363636" />
		<rect x="5.090909" y="2.909091" width="0.363636" height="0.363636" />
		<rect x="6.181818" y="2.909091" width="0.363636" height="0.363636" />
		<rect x="6.909091" y="2.909091" width="0.363636" height="0.363636" />
		<rect x="8.000000" y="2.909091" width="1.454545" height="0.363636" />
		<rect x="9.818182" y="2.909091" width="0.363636" height="0.363636" />
		<rect x="10.545455" y="2.909091" width="0.363636" height="0.363636" />
		<rect x="11.272727" y="2.909091" width="0.363636" height="0.363636" />
		<rect x="1.454545" y="3.272727" width="0.363636" height="0.363636" />
		<rect x="3.272727" y="3.272727" width="0.363636" height="0.363636" />
		<rect x="5.818182" y="3.272727" width="2.181818" height="0.363636" />
		<rect x="8.363636" y="3.272727" width="1.454545" height="0.363636" />
		<rect x="10.545455" y="3.272727" width="0.727273" height="0.363636" />
		<rect x="11.636364" y="3.272727" width="0.363636" height="0.363636" />
		<rect x="0.363636" y="3.636364" width="0.363636" height="0.363636" />
		<rect x="1.090909" y="3.636364" width="0.363636" height="0.363636" />
		<rect x="1.818182" y="3.636364" width="0.727273" height="0.363636" />
		<rect x="2.909091" y="3.636364" width="0.727273" height="0.363636" />
		<rect x="4.000000" y="3.636364" width="0.727273" height="0.363636" />
		<rect x="5.454545" y="3.636364" width="0.363636" height="0.363636" />
		<rect x="6.545455" y="3.636364" width="0.363636" height="0.363636" />
		<rect x="7.272727" y="3.636364" width="0.363636" height="0.363636" />
		<rect x="10.181818" y="3.636364" width="0.363636" height="0.363636" />
		<rect x="10.909091" y="3.636364" width="0.727273" height="0.363636" />
		<rect x="0.000000" y="4.000000" width="0.363636" height="0.363636" />
		<rect x="1.090909" y="4.000000" width="0.363636" height="0.363636" />
		<rect x="1.818182" y="4.000000" width="0.363636" height="0.363636" />
		<rect x="3.272727" y="4.000000" width="1.090909" height="0.363636" />
		<rect x="5.090909" y="4.000000" width="0.727273" height="0.363636" />
		<rect x="7.636364" y="4.000000" width="0.727273" height="0.363636" />
		<rect x="8.727273" y="4.000000" width="0.363636" height="0.363636" />
		<rect x="10.909091" y="4.000000" width="0.727273" height="0.363636" />
		<rect x="0.000000" y="4.363636" width="0.363636" height="0.363636" />
		<rect x="1.090909" y="4.363636" width="0.727273" height="0.363636" />
		<rect x="2.181818" y="4.363636" width="1.454545" height="0.363636" />
		<rect x="4.000000" y="4.363636" width="0.363636" height="0.363636" />
		<rect x="5.454545" y="4.363636" width="1.090909" height="0.363636" />
		<rect x="8.000000" y="4.363636" width="0.727273" height="0.363636" />
		<rect x="9.090909" y="4.363636" width="0.363636" height="0.363636" />
		<rect x="9.818182" y="4.363636" width="0.727273" height="0.363636" />
		<rect x="11.272727" y="4.363636" width="0.363636" height="0.363636" />
		<rect x="0.000000" y="4.727273" width="0.363636" height="0.363636" />
		<rect x="1.454545" y="4.727273" width="0.727273" height="0.363636" />
		<rect x="3.272727" y="4.727273" width="0.727273" height="0.363636" />
		<rect x="4.363636" y="4.727273" width="1.090909" height="0.363636" />
		<rect x="5.818182" y="4.727273" width="0.363636" height="0.363636" />
		<rect x="6.909091" y="4.727273" width="0.727273" height="0.363636" />
		<rect x="8.363636" y="4.727273" width="0.363636" height="0.363636" />
		<rect x="9.454545" y="4.727273" width="0.363636" height="0.363636" />
		<rect x="10.545455" y="4.727273" width="0.363636" height="0.363636" />
		<rect x="11.636364" y="4.727273" width="0.363636" height="0.363636" />
		<rect x="0.727273" y="5.090909" width="0.363636" height="0.363636" />
		<rect x="2.181818" y="5.090909" width="0.727273" height="0.363636" />
		<rect x="3.272727" y="5.090909" width="0.727273" height="0.363636" />
		<rect x="4.727273" y="5.090909" width="1.454545" height="0.363636" />
		<rect x="7.272727" y="5.090909" width="0.363636" height="0.363636" />
		<rect x="8.727273" y="5.090909" width="0.363636" height="0.363636" />
		<rect x="9.454545" y="5.090909" width="2.181818" height="0.363636" />
		<rect x="1.818182" y="5.454545" width="0.363636" height="0.363636" />
		<rect x="2.909091" y="5.454545" width="1.090909" height="0.363636" />
		<rect x="4.363636" y="5.454545" width="0.727273" height="0.363636" />
		<rect x="6.545455" y="5.454545" width="0.363636" height="0.363636" />
		<rect x="7.272727" y="5.454545" width="2.181818" height="0.363636" />
		<rect x="10.181818" y="5.454545" width="1.090909" height="0.363636" />
		<rect x="11.636364" y="5.454545" width="0.363636" height="0.363636" />
		<rect x="0.000000" y="5.818182" width="0.363636" height="0.363636" />
		<rect x="1.090909" y="5.818182" width="1.818182" height="0.363636" />
		<rect x="3.272727" y="5.818182" width="0.363636" height="0.363636" />
		<rect x="4.363636" y="5.818182" width="0.363636" height="0.363636" />
		<rect x="5.090909" y="5.818182" width="1.454545" height="0.363636" />
		<rect x="6.909091" y="5.818182" width="0.363636" height="0.363636" />
		<rect x="9.818182" y="5.818182" width="0.727273" height="0.363636" />
		<rect x="11.636364" y="5.818182" width="0.363636" height="0.363636" />
		<rect x="0.363636" y="6.181818" width="1.454545" height="0.363636" />
		<rect x="2.909091" y="6.181818" width="1.090909" height="0.363636" />
		<rect x="5.818182" y="6.181818" width="1.818182" height="0.363636" />
		<rect x="8.363636" y="6.181818" width="0.363636" height="0.363636" />
		<rect x="9.454545" y="6.181818" width="0.363636" height="0.363636" />
		<rect x="10.545455" y="6.181818" width="0.363636" height="0.363636" />
		<rect x="11.272727" y="6.181818" width="0.727273" height="0.363636" />
		<rect x="0.000000" y="6.545455" width="0.727273" height="0.363636" />
		<rect x="1.090909" y="6.545455" width="0.363636" height="0.363636" />
		<rect x="1.818182" y="6.545455" width="0.727273" height="0.363636" />
		<rect x="2.909091" y="6.545455" width="0.727273" height="0.363636" />
		<rect x="4.000000" y="6.545455" width="0.727273" height="0.363636" />
		<rect x="5.454545" y="6.545455" width="0.727273" height="0.363636" />
		<rect x="6.545455" y="6.545455" width="0.363636" height="0.363636" />
		<rect x="7.272727" y="6.545455" width="1.090909" height="0.363636" />
		<rect x="9.090909" y="6.545455" width="0.727273" height="0.363636" />
		<rect x="10.181818" y="6.545455" width="1.454545" height="0.363636" />
		<rect x="1.818182" y="6.909091" width="0.363636" height="0.363636" />
		<rect x="2.909091" y="6.909091" width="1.454545" height="0.363636" />
		<rect x="5.090909" y="6.909091" width="1.090909" height="0.363636" />
		<rect x="6.545455" y="6.909091" width="0.727273" height="0.363636" />
		<rect x="7.636364" y="6.909091" width="0.727273" height="0.363636" />
		<rect x="9.090909" y="6.909091" width="0.363636" height="0.363636" />
		<rect x="10.181818" y="6.909091" width="1.454545" height="0.363636" />
		<rect x="0.000000" y="7.272727" width="0.363636" height="0.363636" />
		<rect x="0.727273" y="7.272727" width="0.363636" height="0.363636" />
		<rect x="1.818182" y="7.272727" width="0.727273" height="0.363636" />
		<rect x="2.909091" y="7.272727" width="0.727273" height="0.363636" />
		<rect x="4.000000" y="7.272727" width="0.363636" height="0.363636" />
		<rect x="6.181818" y="7.272727" width="0.727273" height="0.363636" />
		<rect x="7.272727" y="7.272727" width="0.363636" height="0.363636" />
		<rect x="8.000000" y="7.272727" width="0.363636" height="0.363636" />
		<rect x="8.727273" y="7.272727" width="0.727273" height="0.363636" />
		<rect x="9.818182" y="7.272727" width="0.727273" height="0.363636" />
		<rect x="0.000000" y="7.636364" width="1.818182" height="0.363636" />
		<rect x="2.909091" y="7.636364" width="1.090909" height="0.363636" />
		<rect x="4.363636" y="7.636364" width="1.090909" height="0.363636" />
		<rect x="6.181818" y="7.636364" width="2.545455" height="0.363636" />
		<rect x="9.090909" y="7.636364" width="0.727273" height="0.363636" />
		<rect x="10.545455" y="7.636364" width="0.363636" height="0.363636" />
		<rect x="11.636364" y="7.636364" width="0.363636" height="0.363636" />
		<rect x="0.000000" y="8.000000" width="0.363636" height="0.363636" />
		<rect x="0.727273" y="8.000000" width="1.818182" height="0.363636" />
		<rect x="4.727273" y="8.000000" width="1.090909" height="0.363636" />
		<rect x="7.272727" y="8.000000" width="0.363636" height="0.363636" />
		<rect x="8.727273" y="8.000000" width="0.363636" height="0.363636" />
		<rect x="9.818182" y="8.000000" width="0.363636" height="0.363636" />
		<rect x="10.545455" y="8.000000" width="0.363636" height="0.363636" />
		<rect x="11.272727" y="8.000000" width="0.363636" height="0.363636" />
		<rect x="0.000000" y="8.363636" width="0.363636" height="0.363636" />
		<rect x="1.090909" y="8.363636" width="0.727273" height="0.363636" />
		<rect x="2.909091" y="8.363636" width="1.090909" height="0.363636" />
		<rect x="4.363636" y="8.363636" width="0.727273" height="0.363636" />
		<rect x="5.454545" y="8.363636" width="0.727273" height="0.363636" />
		<rect x="7.272727" y="8.363636" width="1.090909" height="0.363636" />
		<rect x="10.181818" y="8.363636" width="1.090909" height="0.363636" />
		<rect x="0.000000" y="8.727273" width="0.363636" height="0.363636" />
		<rect x="0.727273" y="8.727273" width="0.727273" height="0.363636" />
		<rect x="1.818182" y="8.727273" width="0.727273" height="0.363636" />
		<rect x="3.272727" y="8.727273" width="0.363636" height="0.363636" />
		<rect x="4.363636" y="8.727273" width="0.363636" height="0.363636" />
		<rect x="5.090909" y="8.727273" width="0.363636" height="0.363636" />
		<rect x="6.181818" y="8.727273" width="0.363636" height="0.363636" />
		<rect x="6.909091" y="8.727273" width="0.363636" height="0.363636" />
		<rect x="8.000000" y="8.727273" width="0.363636" height="0.363636" />
		<rect x="8.727273" y="8.727273" width="1.818182" height="0.363636" />
		<rect x="11.636364" y="8.727273" width="0.363636" height="0.363636" />
		<rect x="2.909091" y="9.090909" width="0.363636" height="0.363636" />
		<rect x="3.636364" y="9.090909" width="0.363636" height="0.363636" />
		<rect x="5.818182" y="9.090909" width="0.363636" height="0.363636" />
		<rect x="6.909091" y="9.090909" width="0.363636" height="0.363636" />
		<rect x="7.636364" y="9.090909" width="1.454545" height="0.363636" />
		<rect x="10.181818" y="9.090909" width="0.727273" height="0.363636" />
		<rect x="11.636364" y="9.090909" width="0.363636" height="0.363636" />
		<rect x="0.000000" y="9.454545" width="2.545455" height="0.363636" />
		<rect x="2.909091" y="9.454545" width="0.363636" height="0.363636" />
		<rect x="3.636364" y="9.454545" width="1.090909" height="0.363636" />
		<rect x="5.454545" y="9.454545" width="0.363636" height="0.363636" />
		<rect x="6.181818" y="9.454545" width="0.727273" height="0.363636" />
		<rect x="7.272727" y="9.454545" width="1.818182" height="0.363636" />
		<rect x="9.454545" y="9.454545" width="0.363636" height="0.363636" />
		<rect x="10.181818" y="9.454545" width="0.363636" height="0.363636" />
		<rect x="11.272727" y="9.454545" width="0.363636" height="0.363636" />
		<rect x="0.000000" y="9.818182" width="0.363636" height="0.363636" />
		<rect x="2.181818" y="9.818182" width="0.363636" height="0.363636" />
		<rect x="3.272727" y="9.818182" width="1.090909" height="0.363636" />
		<rect x="5.090909" y="9.818182" width="1.090909" height="0.363636" />
		<rect x="7.272727" y="9.818182" width="0.727273" height="0.363636" />
		<rect x="8.363636" y="9.818182" width="0.727273" height="0.363636" />
		<rect x="10.181818" y="9.818182" width="1.090909" height="0.363636" />
		<rect x="0.000000" y="10.181818" width="0.363636" height="0.363636" />
		<rect x="0.727273" y="10.181818" width="1.090909" height="0.363636" />
		<rect x="2.181818" y="10.181818" width="0.363636" height="0.363636" />
		<rect x="2.909091" y="10.181818" width="0.727273" height="0.363636" />
		<rect x="4.000000" y="10.181818" width="0.363636" height="0.363636" />
		<rect x="6.181818" y="10.181818" width="0.363636" height="0.363636" />
		<rect x="8.000000" y="10.181818" width="0.363636" height="0.363636" />
		<rect x="8.727273" y="10.181818" width="1.818182" height="0.363636" />
		<rect x="11.272727" y="10.181818" width="0.727273" height="0.363636" />
		<rect x="0.000000" y="10.545455" width="0.363636" height="0.363636" />
		<rect x="0.727273" y="10.545455" width="1.090909" height="0.363636" />
		<rect x="2.181818" y="10.545455" width="0.363636" height="0.363636" />
		<rect x="2.909091" y="10.545455" width="0.363636" height="0.363636" />
		<rect x="4.363636" y="10.545455" width="1.090909" height="0.363636" />
		<rect x="5.818182" y="10.545455" width="1.818182" height="0.363636" />
		<rect x="8.727273" y="10.545455" width="0.727273" height="0.363636" />
		<rect x="9.818182" y="10.545455" width="0.727273" height="0.363636" />
		<rect x="11.272727" y="10.545455" width="0.727273" height="0.363636" />
		<rect x="0.000000" y="10.909091" width="0.363636" height="0.363636" />
		<rect x="0.727273" y="10.909091" width="1.090909" height="0.363636" />
		<rect x="2.181818" y="10.909091" width="0.363636" height="0.363636" />
		<rect x="2.909091" y="10.909091" width="1.090909" height="0.363636" />
		<rect x="4.727273" y="10.909091" width="1.454545" height="0.363636" />
		<rect x="8.000000" y="10.909091" width="1.090909" height="0.363636" />
		<rect x="9.454545" y="10.909091" width="0.363636" height="0.363636" />
		<rect x="10.545455" y="10.909091" width="0.363636" height="0.363636" />
		<rect x="0.000000" y="11.272727" width="0.363636" height="0.363636" />
		<rect x="2.181818" y="11.272727" width="0.363636" height="0.363636" />
		<rect x="2.909091" y="11.272727" width="0.363636" height="0.363636" />
		<rect x="4.363636" y="11.272727" width="0.727273" height="0.363636" />
		<rect x="5.454545" y="11.272727" width="0.363636" height="0.363636" />
		<rect x="6.909091" y="11.272727" width="1.818182" height="0.363636" />
		<rect x="9.090909" y="11.272727" width="0.727273" height="0.363636" />
		<rect x="10.909091" y="11.272727" width="0.363636" height="0.363636" />
		<rect x="0.000000" y="11.636364" width="2.545455" height="0.363636" />
		<rect x="2.909091" y="11.636364" width="0.363636" height="0.363636" />
		<rect x="3.636364" y="11.636364" width="0.363636" height="0.363636" />
		<rect x="4.363636" y="11.636364" width="0.363636" height="0.363636" />
		<rect x="5.090909" y="11.636364" width="0.727273" height="0.363636" />
		<rect x="6.181818" y="11.636364" width="0.363636" height="0.363636" />
		<rect x="6.909091" y="11.636364" width="0.363636" height="0.363636" />
		<rect x="8.000000" y="11.636364" width="1.818182" height="0.363636" />
		<rect x="10.181818" y="11.636364" width="0.363636" height="0.363636" />
		<rect x="11.272727" y="11.636364" width="0.363636" height="0.363636" />
		<rect x="0.000000" y="0.000000" width="0.363636" height="2.545455" />
		<rect x="0.000000" y="2.909091" width="0.363636" height="0.363636" />
		<rect x="0.000000" y="4.000000" width="0.363636" height="1.090909" />
		<rect x="0.000000" y="5.818182" width="0.363636" height="0.363636" />
		<rect x="0.000000" y="6.545455" width="0.363636" height="0.363636" />
		<rect x="0.000000" y="7.272727" width="0.363636" height="1.818182" />
		<rect x="0.000000" y="9.454545" width="0.363636" height="2.545455" />
		<rect x="0.363636" y="0.000000" width="0.363636" height="0.363636" />
		<rect x="0.363636" y="2.181818" width="0.363636" height="0.363636" />
		<rect x="0.363636" y="2.909091" width="0.363636" height="0.363636" />
		<rect x="0.363636" y="3.636364" width="0.363636" height="0.363636" />
		<rect x="0.363636" y="6.181818" width="0.363636" height="0.727273" />
		<rect x="0.363636" y="7.636364" width="0.363636" height="0.363636" />
		<rect x="0.363636" y="9.454545" width="0.363636" height="0.363636" />
		<rect x="0.363636" y="11.636364" width="0.363636" height="0.363636" />
		<rect x="0.727273" y="0.000000" width="0.363636" height="0.363636" />
		<rect x="0.727273" y="0.727273" width="0.363636" height="1.090909" />
		<rect x="0.727273" y="2.181818" width="0.363636" height="0.363636" />
		<rect x="0.727273" y="2.909091" width="0.363636" height="0.363636" />
		<rect x="0.727273" y="5.090909" width="0.363636" height="0.363636" />
		<rect x="0.727273" y="6.181818" width="0.363636" height="0.363636" />
		<rect x="0.727273" y="7.272727" width="0.363636" height="1.090909" />
		<rect x="0.727273" y="8.727273" width="0.363636" height="0.363636" />
		<rect x="0.727273" y="9.454545" width="0.363636" height="0.363636" />
		<rect x="0.727273" y="10.181818" width="0.363636" height="1.090909" />
		<rect x="0.727273" y="11.636364" width="0.363636" height="0.363636" />
		<rect x="1.090909" y="0.000000" width="0.363636" height="0.363636" />
		<rect x="1.090909" y="0.727273" width="0.363636" height="1.090909" />
		<rect x="1.090909" y="2.181818" width="0.363636" height="0.363636" />
		<rect x="1.090909" y="2.909091" width="0.363636" height="0.363636" />
		<rect x="1.090909" y="3.636364" width="0.363636" height="1.090909" />
		<rect x="1.090909" y="5.818182" width="0.363636" height="1.090909" />
		<rect x="1.090909" y="7.636364" width="0.363636" height="1.454545" />
		<rect x="1.090909" y="9.454545" width="0.363636" height="0.363636" />
		<rect x="1.090909" y="10.181818" width="0.363636" height="1.090909" />
		<rect x="1.090909" y="11.636364" width="0.363636" height="0.363636" />
		<rect x="1.454545" y="0.000000" width="0.363636" height="0.363636" />
		<rect x="1.454545" y="0.727273" width="0.363636" height="1.090909" />
		<rect x="1.454545" y="2.181818" width="0.363636" height="0.363636" />
		<rect x="1.454545" y="2.909091" width="0.363636" height="0.727273" />
		<rect x="1.454545" y="4.363636" width="0.363636" height="0.727273" />
		<rect x="1.454545" y="5.818182" width="0.363636" height="0.727273" />
		<rect x="1.454545" y="7.636364" width="0.363636" height="1.090909" />
		<rect x="1.454545" y="9.454545" width="0.363636" height="0.363636" />
		<rect x="1.454545" y="10.181818" width="0.363636" height="1.090909" />
		<rect x="1.454545" y="11.636364" width="0.363636" height="0.363636" />
		<rect x="1.818182" y="0.000000" width="0.363636" height="0.363636" />
		<rect x="1.818182" y="2.181818" width="0.363636" height="0.363636" />
		<rect x="1.818182" y="3.636364" width="0.363636" height="0.727273" />
		<rect x="1.818182" y="4.727273" width="0.363636" height="0.363636" />
		<rect x="1.818182" y="5.454545" width="0.363636" height="0.727273" />
		<rect x="1.818182" y="6.545455" width="0.363636" height="1.090909" />
		<rect x="1.818182" y="8.000000" width="0.363636" height="0.363636" />
		<rect x="1.818182" y="8.727273" width="0.363636" height="0.363636" />
		<rect x="1.818182" y="9.454545" width="0.363636" height="0.363636" />
		<rect x="1.818182" y="11.636364" width="0.363636" height="0.363636" />
		<rect x="2.181818" y="0.000000" width="0.363636" height="2.545455" />
		<rect x="2.181818" y="2.909091" width="0.363636" height="0.363636" />
		<rect x="2.181818" y="3.636364" width="0.363636" height="0.363636" />
		<rect x="2.181818" y="4.363636" width="0.363636" height="0.363636" />
		<rect x="2.181818" y="5.090909" width="0.363636" height="0.363636" />
		<rect x="2.181818" y="5.818182" width="0.363636" height="0.363636" />
		<rect x="2.181818" y="6.545455" width="0.363636" height="0.363636" />
		<rect x="2.181818" y="7.272727" width="0.363636" height="0.363636" />
		<rect x="2.181818" y="8.000000" width="0.363636" height="0.363636" />
		<rect x="2.181818" y="8.727273" width="0.363636" height="0.363636" />
		<rect x="2.181818" y="9.454545" width="0.363636" height="2.545455" />
		<rect x="2.545455" y="2.909091" width="0.363636" height="0.363636" />
		<rect x="2.545455" y="4.363636" width="0.363636" height="0.363636" />
		<rect x="2.545455" y="5.090909" width="0.363636" height="0.363636" />
		<rect x="2.545455" y="5.818182" width="0.363636" height="0.363636" />
		<rect x="2.909091" y="0.363636" width="0.363636" height="0.363636" />
		<rect x="2.909091" y="1.090909" width="0.363636" height="0.363636" />
		<rect x="2.909091" y="1.818182" width="0.363636" height="0.727273" />
		<rect x="2.909091" y="2.909091" width="0.363636" height="0.363636" />
		<rect x="2.909091" y="3.636364" width="0.363636" height="0.363636" />
		<rect x="2.909091" y="4.363636" width="0.363636" height="0.363636" />
		<rect x="2.909091" y="5.454545" width="0.363636" height="0.363636" />
		<rect x="2.909091" y="6.181818" width="0.363636" height="1.818182" />
		<rect x="2.909091" y="8.363636" width="0.363636" height="0.363636" />
		<rect x="2.909091" y="9.090909" width="0.363636" height="0.727273" />
		<rect x="2.909091" y="10.181818" width="0.363636" height="1.818182" />
		<rect x="3.272727" y="0.000000" width="0.363636" height="1.454545" />
		<rect x="3.272727" y="2.909091" width="0.363636" height="5.090909" />
		<rect x="3.272727" y="8.363636" width="0.363636" height="0.727273" />
		<rect x="3.272727" y="9.818182" width="0.363636" height="0.727273" />
		<rect x="3.272727" y="10.909091" width="0.363636" height="0.363636" />
		<rect x="3.636364" y="0.727273" width="0.363636" height="0.363636" />
		<rect x="3.636364" y="1.454545" width="0.363636" height="1.090909" />
		<rect x="3.636364" y="2.909091" width="0.363636" height="0.363636" />
		<rect x="3.636364" y="4.000000" width="0.363636" height="0.363636" />
		<rect x="3.636364" y="4.727273" width="0.363636" height="1.090909" />
		<rect x="3.636364" y="6.181818" width="0.363636" height="0.363636" />
		<rect x="3.636364" y="6.909091" width="0.363636" height="0.363636" />
		<rect x="3.636364" y="7.636364" width="0.363636" height="0.363636" />
		<rect x="3.636364" y="8.363636" width="0.363636" height="0.363636" />
		<rect x="3.636364" y="9.090909" width="0.363636" height="1.090909" />
		<rect x="3.636364" y="10.909091" width="0.363636" height="0.363636" />
		<rect x="3.636364" y="11.636364" width="0.363636" height="0.363636" />
		<rect x="4.000000" y="0.363636" width="0.363636" height="1.090909" />
		<rect x="4.000000" y="3.636364" width="0.363636" height="1.090909" />
		<rect x="4.000000" y="6.545455" width="0.363636" height="1.090909" />
		<rect x="4.000000" y="9.454545" width="0.363636" height="1.090909" />
		<rect x="4.363636" y="0.363636" width="0.363636" height="0.363636" />
		<rect x="4.363636" y="1.454545" width="0.363636" height="0.363636" />
		<rect x="4.363636" y="2.181818" width="0.363636" height="1.090909" />
		<rect x="4.363636" y="3.636364" width="0.363636" height="0.363636" />
		<rect x="4.363636" y="4.727273" width="0.363636" height="0.363636" />
		<rect x="4.363636" y="5.454545" width="0.363636" height="0.727273" />
		<rect x="4.363636" y="6.545455" width="0.363636" height="0.363636" />
		<rect x="4.363636" y="7.636364" width="0.363636" height="0.363636" />
		<rect x="4.363636" y="8.363636" width="0.363636" height="0.727273" />
		<rect x="4.363636" y="9.454545" width="0.363636" height="0.363636" />
		<rect x="4.363636" y="10.545455" width="0.363636" height="0.363636" />
		<rect x="4.363636" y="11.272727" width="0.363636" height="0.727273" />
		<rect x="4.727273" y="1.454545" width="0.363636" height="0.727273" />
		<rect x="4.727273" y="2.545455" width="0.363636" height="0.363636" />
		<rect x="4.727273" y="4.727273" width="0.363636" height="1.090909" />
		<rect x="4.727273" y="7.636364" width="0.363636" height="1.090909" />
		<rect x="4.727273" y="10.545455" width="0.363636" height="1.090909" />
		<rect x="5.090909" y="0.000000" width="0.363636" height="0.727273" />
		<rect x="5.090909" y="1.818182" width="0.363636" height="0.727273" />
		<rect x="5.090909" y="2.909091" width="0.363636" height="0.363636" />
		<rect x="5.090909" y="4.000000" width="0.363636" height="0.363636" />
		<rect x="5.090909" y="4.727273" width="0.363636" height="0.727273" />
		<rect x="5.090909" y="5.818182" width="0.363636" height="0.363636" />
		<rect x="5.090909" y="6.909091" width="0.363636" height="0.363636" />
		<rect x="5.090909" y="7.636364" width="0.363636" height="0.727273" />
		<rect x="5.090909" y="8.727273" width="0.363636" height="0.363636" />
		<rect x="5.090909" y="9.818182" width="0.363636" height="0.363636" />
		<rect x="5.090909" y="10.545455" width="0.363636" height="0.727273" />
		<rect x="5.090909" y="11.636364" width="0.363636" height="0.363636" />
		<rect x="5.454545" y="0.363636" width="0.363636" height="1.090909" />
		<rect x="5.454545" y="1.818182" width="0.363636" height="0.363636" />
		<rect x="5.454545" y="3.636364" width="0.363636" height="1.090909" />
		<rect x="5.454545" y="5.090909" width="0.363636" height="0.363636" />
		<rect x="5.454545" y="5.818182" width="0.363636" height="0.363636" />
		<rect x="5.454545" y="6.545455" width="0.363636" height="0.727273" />
		<rect x="5.454545" y="8.000000" width="0.363636" height="0.727273" />
		<rect x="5.454545" y="9.454545" width="0.363636" height="0.727273" />
		<rect x="5.454545" y="10.909091" width="0.363636" height="1.090909" />
		<rect x="5.818182" y="0.000000" width="0.363636" height="2.909091" />
		<rect x="5.818182" y="3.272727" width="0.363636" height="0.363636" />
		<rect x="5.818182" y="4.363636" width="0.363636" height="1.090909" />
		<rect x="5.818182" y="5.818182" width="0.363636" height="1.454545" />
		<rect x="5.818182" y="8.363636" width="0.363636" height="0.363636" />
		<rect x="5.818182" y="9.090909" width="0.363636" height="0.363636" />
		<rect x="5.818182" y="9.818182" width="0.363636" height="0.363636" />
		<rect x="5.818182" y="10.545455" width="0.363636" height="0.727273" />
		<rect x="6.181818" y="0.000000" width="0.363636" height="0.363636" />
		<rect x="6.181818" y="1.090909" width="0.363636" height="0.363636" />
		<rect x="6.181818" y="1.818182" width="0.363636" height="0.363636" />
		<rect x="6.181818" y="2.909091" width="0.363636" height="0.727273" />
		<rect x="6.181818" y="4.363636" width="0.363636" height="0.363636" />
		<rect x="6.181818" y="5.818182" width="0.363636" height="0.727273" />
		<rect x="6.181818" y="7.272727" width="0.363636" height="0.727273" />
		<rect x="6.181818" y="8.727273" width="0.363636" height="0.363636" />
		<rect x="6.181818" y="9.454545" width="0.363636" height="0.363636" />
		<rect x="6.181818" y="10.181818" width="0.363636" height="0.727273" />
		<rect x="6.181818" y="11.636364" width="0.363636" height="0.363636" />
		<rect x="6.545455" y="0.000000" width="0.363636" height="0.363636" />
		<rect x="6.545455" y="2.181818" width="0.363636" height="0.363636" />
		<rect x="6.545455" y="3.272727" width="0.363636" height="0.727273" />
		<rect x="6.545455" y="5.454545" width="0.363636" height="0.363636" />
		<rect x="6.545455" y="6.181818" width="0.363636" height="1.818182" />
		<rect x="6.545455" y="9.454545" width="0.363636" height="0.363636" />
		<rect x="6.545455" y="10.545455" width="0.363636" height="0.363636" />
		<rect x="6.909091" y="0.000000" width="0.363636" height="0.363636" />
		<rect x="6.909091" y="1.090909" width="0.363636" height="0.727273" />
		<rect x="6.909091" y="2.909091" width="0.363636" height="0.727273" />
		<rect x="6.909091" y="4.727273" width="0.363636" height="0.363636" />
		<rect x="6.909091" y="5.818182" width="0.363636" height="0.727273" />
		<rect x="6.909091" y="6.909091" width="0.363636" height="0.363636" />
		<rect x="6.909091" y="7.636364" width="0.363636" height="0.363636" />
		<rect x="6.909091" y="8.727273" width="0.363636" height="0.727273" />
		<rect x="6.909091" y="10.545455" width="0.363636" height="0.363636" />
		<rect x="6.909091" y="11.272727" width="0.363636" height="0.727273" />
		<rect x="7.272727" y="0.727273" width="0.363636" height="0.363636" />
		<rect x="7.272727" y="1.454545" width="0.363636" height="0.363636" />
		<rect x="7.272727" y="2.181818" width="0.363636" height="0.727273" />
		<rect x="7.272727" y="3.272727" width="0.363636" height="0.727273" />
		<rect x="7.272727" y="4.727273" width="0.363636" height="1.090909" />
		<rect x="7.272727" y="6.181818" width="0.363636" height="0.727273" />
		<rect x="7.272727" y="7.272727" width="0.363636" height="1.454545" />
		<rect x="7.272727" y="9.454545" width="0.363636" height="0.727273" />
		<rect x="7.272727" y="10.545455" width="0.363636" height="0.363636" />
		<rect x="7.272727" y="11.272727" width="0.363636" height="0.363636" />
		<rect x="7.636364" y="0.363636" width="0.363636" height="0.727273" />
		<rect x="7.636364" y="1.454545" width="0.363636" height="0.727273" />
		<rect x="7.636364" y="2.545455" width="0.363636" height="0.363636" />
		<rect x="7.636364" y="3.272727" width="0.363636" height="0.363636" />
		<rect x="7.636364" y="4.000000" width="0.363636" height="0.363636" />
		<rect x="7.636364" y="5.454545" width="0.363636" height="0.363636" />
		<rect x="7.636364" y="6.545455" width="0.363636" height="0.727273" />
		<rect x="7.636364" y="7.636364" width="0.363636" height="0.363636" />
		<rect x="7.636364" y="8.363636" width="0.363636" height="0.363636" />
		<rect x="7.636364" y="9.090909" width="0.363636" height="1.090909" />
		<rect x="7.636364" y="11.272727" width="0.363636" height="0.363636" />
		<rect x="8.000000" y="0.363636" width="0.363636" height="0.363636" />
		<rect x="8.000000" y="1.090909" width="0.363636" height="0.363636" />
		<rect x="8.000000" y="2.181818" width="0.363636" height="1.090909" />
		<rect x="8.000000" y="4.000000" width="0.363636" height="0.727273" />
		<rect x="8.000000" y="5.454545" width="0.363636" height="0.363636" />
		<rect x="8.000000" y="6.545455" width="0.363636" height="1.454545" />
		<rect x="8.000000" y="8.363636" width="0.363636" height="1.454545" />
		<rect x="8.000000" y="10.181818" width="0.363636" height="0.363636" />
		<rect x="8.000000" y="10.909091" width="0.363636" height="1.090909" />
		<rect x="8.363636" y="0.000000" width="0.363636" height="0.363636" />
		<rect x="8.363636" y="0.727273" width="0.363636" height="0.363636" />
		<rect x="8.363636" y="1.454545" width="0.363636" height="0.363636" />
		<rect x="8.363636" y="2.909091" width="0.363636" height="0.727273" />
		<rect x="8.363636" y="4.363636" width="0.363636" height="0.727273" />
		<rect x="8.363636" y="5.454545" width="0.363636" height="0.363636" />
		<rect x="8.363636" y="6.181818" width="0.363636" height="0.363636" />
		<rect x="8.363636" y="7.636364" width="0.363636" height="0.363636" />
		<rect x="8.363636" y="9.090909" width="0.363636" height="1.090909" />
		<rect x="8.363636" y="10.909091" width="0.363636" height="1.090909" />
		<rect x="8.727273" y="0.363636" width="0.363636" height="1.090909" />
		<rect x="8.727273" y="2.181818" width="0.363636" height="0.363636" />
		<rect x="8.727273" y="2.909091" width="0.363636" height="0.727273" />
		<rect x="8.727273" y="4.000000" width="0.363636" height="0.363636" />
		<rect x="8.727273" y="5.090909" width="0.363636" height="0.727273" />
		<rect x="8.727273" y="7.272727" width="0.363636" height="0.363636" />
		<rect x="8.727273" y="8.000000" width="0.363636" height="0.363636" />
		<rect x="8.727273" y="8.727273" width="0.363636" height="2.545455" />
		<rect x="8.727273" y="11.636364" width="0.363636" height="0.363636" />
		<rect x="9.090909" y="2.909091" width="0.363636" height="0.727273" />
		<rect x="9.090909" y="4.363636" width="0.363636" height="0.363636" />
		<rect x="9.090909" y="5.454545" width="0.363636" height="0.363636" />
		<rect x="9.090909" y="6.545455" width="0.363636" height="1.454545" />
		<rect x="9.090909" y="8.727273" width="0.363636" height="0.363636" />
		<rect x="9.090909" y="10.181818" width="0.363636" height="0.727273" />
		<rect x="9.090909" y="11.272727" width="0.363636" height="0.727273" />
		<rect x="9.454545" y="0.000000" width="0.363636" height="2.545455" />
		<rect x="9.454545" y="3.272727" width="0.363636" height="0.363636" />
		<rect x="9.454545" y="4.727273" width="0.363636" height="0.727273" />
		<rect x="9.454545" y="6.181818" width="0.363636" height="0.727273" />
		<rect x="9.454545" y="7.636364" width="0.363636" height="0.363636" />
		<rect x="9.454545" y="8.727273" width="0.363636" height="0.363636" />
		<rect x="9.454545" y="9.454545" width="0.363636" height="0.363636" />
		<rect x="9.454545" y="10.181818" width="0.363636" height="0.363636" />
		<rect x="9.454545" y="10.909091" width="0.363636" height="1.090909" />
		<rect x="9.818182" y="0.000000" width="0.363636" height="0.363636" />
		<rect x="9.818182" y="2.181818" width="0.363636" height="0.363636" />
		<rect x="9.818182" y="2.909091" width="0.363636" height="0.363636" />
		<rect x="9.818182" y="4.363636" width="0.363636" height="0.363636" />
		<rect x="9.818182" y="5.090909" width="0.363636" height="0.363636" />
		<rect x="9.818182" y="5.818182" width="0.363636" height="0.363636" />
		<rect x="9.818182" y="7.272727" width="0.363636" height="0.363636" />
		<rect x="9.818182" y="8.000000" width="0.363636" height="0.363636" />
		<rect x="9.818182" y="8.727273" width="0.363636" height="0.363636" />
		<rect x="9.818182" y="10.181818" width="0.363636" height="0.727273" />
		<rect x="10.181818" y="0.000000" width="0.363636" height="0.363636" />
		<rect x="10.181818" y="0.727273" width="0.363636" height="1.090909" />
		<rect x="10.181818" y="2.181818" width="0.363636" height="0.363636" />
		<rect x="10.181818" y="3.636364" width="0.363636" height="0.363636" />
		<rect x="10.181818" y="4.363636" width="0.363636" height="0.363636" />
		<rect x="10.181818" y="5.090909" width="0.363636" height="1.090909" />
		<rect x="10.181818" y="6.545455" width="0.363636" height="1.090909" />
		<rect x="10.181818" y="8.363636" width="0.363636" height="2.545455" />
		<rect x="10.181818" y="11.636364" width="0.363636" height="0.363636" />
		<rect x="10.545455" y="0.000000" width="0.363636" height="0.363636" />
		<rect x="10.545455" y="0.727273" width="0.363636" height="1.090909" />
		<rect x="10.545455" y="2.181818" width="0.363636" height="0.363636" />
		<rect x="10.545455" y="2.909091" width="0.363636" height="0.727273" />
		<rect x="10.545455" y="4.727273" width="0.363636" height="1.090909" />
		<rect x="10.545455" y="6.181818" width="0.363636" height="1.090909" />
		<rect x="10.545455" y="7.636364" width="0.363636" height="1.090909" />
		<rect x="10.545455" y="9.090909" width="0.363636" height="0.363636" />
		<rect x="10.545455" y="9.818182" width="0.363636" height="0.363636" />
		<rect x="10.545455" y="10.909091" width="0.363636" height="0.363636" />
		<rect x="10.909091" y="0.000000" width="0.363636" height="0.363636" />
		<rect x="10.909091" y="0.727273" width="0.363636" height="1.090909" />
		<rect x="10.909091" y="2.181818" width="0.363636" height="0.363636" />
		<rect x="10.909091" y="3.272727" width="0.363636" height="1.090909" />
		<rect x="10.909091" y="5.090909" width="0.363636" height="0.727273" />
		<rect x="10.909091" y="6.545455" width="0.363636" height="0.727273" />
		<rect x="10.909091" y="8.363636" width="0.363636" height="0.363636" />
		<rect x="10.909091" y="9.818182" width="0.363636" height="0.363636" />
		<rect x="10.909091" y="11.272727" width="0.363636" height="0.363636" />
		<rect x="11.272727" y="0.000000" width="0.363636" height="0.363636" />
		<rect x="11.272727" y="2.181818" width="0.363636" height="0.363636" />
		<rect x="11.272727" y="2.909091" width="0.363636" height="0.363636" />
		<rect x="11.272727" y="3.636364" width="0.363636" height="1.090909" />
		<rect x="11.272727" y="5.090909" width="0.363636" height="0.363636" />
		<rect x="11.272727" y="6.181818" width="0.363636" height="1.090909" />
		<rect x="11.272727" y="8.000000" width="0.363636" height="0.363636" />
		<rect x="11.272727" y="9.454545" width="0.363636" height="0.363636" />
		<rect x="11.272727" y="10.181818" width="0.363636" height="0.727273" />
		<rect x="11.272727" y="11.636364" width="0.363636" height="0.363636" />
		<rect x="11.636364" y="0.000000" width="0.363636" height="2.545455" />
		<rect x="11.636364" y="3.272727" width="0.363636" height="0.363636" />
		<rect x="11.636364" y="4.727273" width="0.363636" height="0.363636" />
		<rect x="11.636364" y="5.454545" width="0.363636" height="1.090909" />
		<rect x="11.636364" y="7.636364" width="0.363636" height="0.363636" />
		<rect x="11.636364" y="8.727273" width="0.363636" height="0.727273" />
		<rect x="11.636364" y="10.181818" width="0.363636" height="0.727273" />
	</g>
</svg>
