<?xml version="1.0" standalone="no" ?>
<!DOCTYPE svg PUBLIC "-//W3C//DTD SVG 1.1//EN" "http://www.w3.org/Graphics/SVG/1.1/DTD/svg11.dtd">
<svg width="12.000000" height="12.000000" viewBox="0 0 12.000000 12.000000" version="1.1" xmlns="http://www.w3.org/2000/svg">
	<desc>brass-vintage-bullock-cart</desc>
	<rect x="0" y="0" width="12.000000" height="12.000000" fill="#ffffff" stroke="none" stroke-width="0" stroke-linecap="square" />
	<g id="bars" fill="#000000" stroke="none" stroke-width="0" stroke-linecap="square">
		<rect x="0.000000" y="0.000000" width="3.360000" height="0.480000" />
		<rect x="4.320000" y="0.000000" width="1.440000" height="0.480000" />
		<rect x="6.720000" y="0.000000" width="0.480000" height="0.480000" />
		<rect x="8.640000" y="0.000000" width="3.360000" height="0.480000" />
		<rect x="0.000000" y="0.480000" width="0.480000" height="0.480000" />
		<rect x="2.880000" y="0.480000" width="0.480000" height="0.480000" />
		<rect x="5.280000" y="0.480000" width="0.960000" height="0.480000" />
		<rect x="6.720000" y="0.480000" width="0.480000" height="0.480000" />
		<rect x="8.640000" y="0.480000" width="0.480000" height="0.480000" />
		<rect x="11.520000" y="0.480000" width="0.480000" height="0.480000" />
		<rect x="0.000000" y="0.960000" width="0.480000" height="0.480000" />
		<rect x="0.960000" y="0.960000" width="1.440000" height="0.480000" />
		<rect x="2.880000" y="0.960000" width="0.480000" height="0.480000" />
		<rect x="4.320000" y="0.960000" width="1.440000" height="0.480000" />
		<rect x="7.200000" y="0.960000" width="0.960000" height="0.480000" />
		<rect x="8.640000" y="0.960000" width="0.480000" height="0.480000" />
		<rect x="9.600000" y="0.960000" width="1.440000" height="0.480000" />
		<rect x="11.520000" y="0.960000" width="0.480000" height="0.480000" />
		<rect x="0.000000" y="1.440000" width="0.480000" height="0.480000" />
		<rect x="0.960000" y="1.440000" width="1.440000" height="0.480000" />
		<rect x="2.880000" y="1.440000" width="0.480000" height="0.480000" />
		<rect x="3.840000" y="1.440000" width="0.480000" height="0.480000" />
		<rect x="4.800000" y="1.440000" width="0.960000" height="0.480000" />
		<rect x="6.240000" y="1.440000" width="0.480000" height="0.480000" />
		<rect x="7.200000" y="1.440000" width="0.960000" height="0.480000" />
		<rect x="8.640000" y="1.440000" width="0.480000" height="0.480000" />
		<rect x="9.600000" y="1.440000" width="1.440000" height="0.480000" />
		<rect x="11.520000" y="1.440000" width="0.480000" height="0.480000" />
		<rect x="0.000000" y="1.920000" width="0.480000" height="0.480000" />
		<rect x="0.960000" y="1.920000" width="1.440000" height="0.480000" />
		<rect x="2.880000" y="1.920000" width="0.480000" height="0.480000" />
		<rect x="3.840000" y="1.920000" width="0.480000" height="0.480000" />
		<rect x="4.800000" y="1.920000" width="0.480000" height="0.480000" />
		<rect x="5.760000" y="1.920000" width="0.960000" height="0.480000" />
		<rect x="7.680000" y="1.920000" width="0.480000" height="0.480000" />
		<rect x="8.640000" y="1.920000" width="0.480000" height="0.480000" />
		<rect x="9.600000" y="1.920000" width="1.440000" height="0.480000" />
		<rect x="11.520000" y="1.920000" width="0.480000" height="0.480000" />
		<rect x="0.000000" y="2.400000" width="0.480000" height="0.480000" />
		<rect x="2.880000" y="2.400000" width="0.480000" height="0.480000" />
		<rect x="4.320000" y="2.400000" width="0.960000" height="0.480000" />
		<rect x="6.240000" y="2.400000" width="0.960000" height="0.480000" />
		<rect x="7.680000" y="2.400000" width="0.480000" height="0.480000" />
		<rect x="8.640000" y="2.400000" width="0.480000" height="0.480000" />
		<rect x="11.520000" y="2.400000" width="0.480000" height="0.480000" />
		<rect x="0.000000" y="2.880000" width="3.360000" height="0.480000" />
		<rect x="3.840000" y="2.880000" width="0.480000" height="0.480000" />
		<rect x="4.800000" y="2.880000" width="0.480000" height="0.480000" />
		<rect x="5.760000" y="2.880000" width="0.480000" height="0.480000" />
		<rect x="6.720000" y="2.880000" width="0.480000" height="0.480000" />
		<rect x="7.680000" y="2.880000" width="0.480000" height="0.480000" />
		<rect x="8.640000" y="2.880000" width="3.360000" height="0.480000" />
		<rect x="4.320000" y="3.360000" width="0.480000" height="0.480000" />
		<rect x="5.760000" y="3.360000" width="0.480000" height="0.480000" />
		<rect x="6.720000" y="3.360000" width="0.480000" height="0.480000" />
		<rect x="7.680000" y="3.360000" width="0.480000" height="0.480000" />
		<rect x="0.000000" y="3.840000" width="0.960000" height="0.480000" />
		<rect x="2.400000" y="3.840000" width="1.440000" height="0.480000" />
		<rect x="4.320000" y="3.840000" width="0.960000" height="0.480000" />
		<rect x="5.760000" y="3.840000" width="2.400000" height="0.480000" />
		<rect x="9.600000" y="3.840000" width="0.960000" height="0.480000" />
		<rect x="0.480000" y="4.320000" width="0.480000" height="0.480000" />
		<rect x="1.920000" y="4.320000" width="0.960000" height="0.480000" />
		<rect x="3.840000" y="4.320000" width="0.480000" height="0.480000" />
		<rect x="4.800000" y="4.320000" width="0.480000" height="0.480000" />
		<rect x="6.720000" y="4.320000" width="0.960000" height="0.480000" />
		<rect x="8.160000" y="4.320000" width="0.480000" height="0.480000" />
		<rect x="9.120000" y="4.320000" width="0.960000" height="0.480000" />
		<rect x="10.560000" y="4.320000" width="0.480000" height="0.480000" />
		<rect x="0.000000" y="4.800000" width="0.480000" height="0.480000" />
		<rect x="1.440000" y="4.800000" width="0.480000" height="0.480000" />
		<rect x="2.880000" y="4.800000" width="0.960000" height="0.480000" />
		<rect x="4.320000" y="4.800000" width="0.480000" height="0.480000" />
		<rect x="5.280000" y="4.800000" width="1.440000" height="0.480000" />
		<rect x="7.200000" y="4.800000" width="0.480000" height="0.480000" />
		<rect x="8.160000" y="4.800000" width="0.960000" height="0.480000" />
		<rect x="9.600000" y="4.800000" width="0.480000" height="0.480000" />
		<rect x="11.040000" y="4.800000" width="0.960000" height="0.480000" />
		<rect x="0.000000" y="5.280000" width="0.480000" height="0.480000" />
		<rect x="1.440000" y="5.280000" width="1.440000" height="0.480000" />
		<rect x="4.800000" y="5.280000" width="0.960000" height="0.480000" />
		<rect x="6.720000" y="5.280000" width="0.960000" height="0.480000" />
		<rect x="8.640000" y="5.280000" width="1.920000" height="0.480000" />
		<rect x="1.440000" y="5.760000" width="2.400000" height="0.480000" />
		<rect x="4.320000" y="5.760000" width="0.960000" height="0.480000" />
		<rect x="5.760000" y="5.760000" width="0.480000" height="0.480000" />
		<rect x="7.200000" y="5.760000" width="0.960000" height="0.480000" />
		<rect x="8.640000" y="5.760000" width="0.960000" height="0.480000" />
		<rect x="11.040000" y="5.760000" width="0.960000" height="0.480000" />
		<rect x="0.000000" y="6.240000" width="2.400000" height="0.480000" />
		<rect x="4.800000" y="6.240000" width="0.480000" height="0.480000" />
		<rect x="5.760000" y="6.240000" width="0.960000" height="0.480000" />
		<rect x="7.200000" y="6.240000" width="0.960000" height="0.480000" />
		<rect x="9.120000" y="6.240000" width="0.480000" height="0.480000" />
		<rect x="11.040000" y="6.240000" width="0.480000" height="0.480000" />
		<rect x="0.000000" y="6.720000" width="0.480000" height="0.480000" />
		<rect x="1.920000" y="6.720000" width="1.920000" height="0.480000" />
		<rect x="4.320000" y="6.720000" width="0.960000" height="0.480000" />
		<rect x="5.760000" y="6.720000" width="0.960000" height="0.480000" />
		<rect x="7.200000" y="6.720000" width="0.960000" height="0.480000" />
		<rect x="8.640000" y="6.720000" width="0.960000" height="0.480000" />
		<rect x="10.560000" y="6.720000" width="1.440000" height="0.480000" />
		<rect x="0.000000" y="7.200000" width="0.480000" height="0.480000" />
		<rect x="0.960000" y="7.200000" width="0.960000" height="0.480000" />
		<rect x="2.400000" y="7.200000" width="0.480000" height="0.480000" />
		<rect x="3.360000" y="7.200000" width="1.920000" height="0.480000" />
		<rect x="8.160000" y="7.200000" width="0.960000" height="0.480000" />
		<rect x="10.080000" y="7.200000" width="0.960000" height="0.480000" />
		<rect x="0.000000" y="7.680000" width="0.480000" height="0.480000" />
		<rect x="2.880000" y="7.680000" width="0.480000" height="0.480000" />
		<rect x="3.840000" y="7.680000" width="0.960000" height="0.480000" />
		<rect x="6.240000" y="7.680000" width="0.480000" height="0.480000" />
		<rect x="7.680000" y="7.680000" width="2.400000" height="0.480000" />
		<rect x="10.560000" y="7.680000" width="0.480000" height="0.480000" />
		<rect x="11.520000" y="7.680000" width="0.480000" height="0.480000" />
		<rect x="3.840000" y="8.160000" width="0.480000" height="0.480000" />
		<rect x="4.800000" y="8.160000" width="0.960000" height="0.480000" />
		<rect x="6.240000" y="8.160000" width="0.480000" height="0.480000" />
		<rect x="7.680000" y="8.160000" width="0.480000" height="0.480000" />
		<rect x="9.600000" y="8.160000" width="0.480000" height="0.480000" />
		<rect x="0.000000" y="8.640000" width="3.360000" height="0.480000" />
		<rect x="3.840000" y="8.640000" width="2.880000" height="0.480000" />
		<rect x="7.680000" y="8.640000" width="0.480000" height="0.480000" />
		<rect x="8.640000" y="8.640000" width="0.480000" height="0.480000" />
		<rect x="9.600000" y="8.640000" width="0.480000" height="0.480000" />
		<rect x="11.520000" y="8.640000" width="0.480000" height="0.480000" />
		<rect x="0.000000" y="9.120000" width="0.480000" height="0.480000" />
		<rect x="2.880000" y="9.120000" width="0.480000" height="0.480000" />
		<rect x="3.840000" y="9.120000" width="2.400000" height="0.480000" />
		<rect x="6.720000" y="9.120000" width="0.480000" height="0.480000" />
		<rect x="7.680000" y="9.120000" width="0.480000" height="0.480000" />
		<rect x="9.600000" y="9.120000" width="0.480000" height="0.480000" />
		<rect x="0.000000" y="9.600000" width="0.480000" height="0.480000" />
		<rect x="0.960000" y="9.600000" width="1.440000" height="0.480000" />
		<rect x="2.880000" y="9.600000" width="0.480000" height="0.480000" />
		<rect x="4.320000" y="9.600000" width="0.960000" height="0.480000" />
		<rect x="6.240000" y="9.600000" width="4.800000" height="0.480000" />
		<rect x="0.000000" y="10.080000" width="0.480000" height="0.480000" />
		<rect x="0.960000" y="10.080000" width="1.440000" height="0.480000" />
		<rect x="2.880000" y="10.080000" width="0.480000" height="0.480000" />
		<rect x="5.280000" y="10.080000" width="0.480000" height="0.480000" />
		<rect x="6.720000" y="10.080000" width="2.400000" height="0.480000" />
		<rect x="10.080000" y="10.080000" width="0.480000" height="0.480000" />
		<rect x="11.040000" y="10.080000" width="0.960000" height="0.480000" />
		<rect x="0.000000" y="10.560000" width="0.480000" height="0.480000" />
		<rect x="0.960000" y="10.560000" width="1.440000" height="0.480000" />
		<rect x="2.880000" y="10.560000" width="0.480000" height="0.480000" />
		<rect x="4.800000" y="10.560000" width="0.480000" height="0.480000" />
		<rect x="6.240000" y="10.560000" width="0.480000" height="0.480000" />
		<rect x="9.120000" y="10.560000" width="0.480000" height="0.480000" />
		<rect x="11.520000" y="10.560000" width="0.480000" height="0.480000" />
		<rect x="0.000000" y="11.040000" width="0.480000" height="0.480000" />
		<rect x="2.880000" y="11.040000" width="0.480000" height="0.480000" />
		<rect x="3.840000" y="11.040000" width="1.440000" height="0.480000" />
		<rect x="5.760000" y="11.040000" width="0.480000" height="0.480000" />
		<rect x="6.720000" y="11.040000" width="0.480000" height="0.480000" />
		<rect x="7.680000" y="11.040000" width="1.440000" height="0.480000" />
		<rect x="9.600000" y="11.040000" width="0.960000" height="0.480000" />
		<rect x="11.520000" y="11.040000" width="0.480000" height="0.480000" />
		<rect x="0.000000" y="11.520000" width="3.360000" height="0.480000" />
		<rect x="3.840000" y="11.520000" width="0.480000" height="0.480000" />
		<rect x="5.280000" y="11.520000" width="0.960000" height="0.480000" />
		<rect x="7.680000" y="11.520000" width="0.480000" height="0.480000" />
		<rect x="9.600000" y="11.520000" width="0.480000" height="0.480000" />
		<rect x="11.520000" y="11.520000" width="0.480000" height="0.480000" />
		<rect x="0.000000" y="0.000000" width="0.480000" height="3.360000" />
		<rect x="0.000000" y="3.840000" width="0.480000" height="0.480000" />
		<rect x="0.000000" y="4.800000" width="0.480000" height="0.960000" />
		<rect x="0.000000" y="6.240000" width="0.480000" height="1.920000" />
		<rect x="0.000000" y="8.640000" width="0.480000" height="3.360000" />
		<rect x="0.480000" y="0.000000" width="0.480000" height="0.480000" />
		<rect x="0.480000" y="2.880000" width="0.480000" height="0.480000" />
		<rect x="0.480000" y="3.840000" width="0.480000" height="0.960000" />
		<rect x="0.480000" y="6.240000" width="0.480000" height="0.480000" />
		<rect x="0.480000" y="8.640000" width="0.480000" height="0.480000" />
		<rect x="0.480000" y="11.520000" width="0.480000" height="0.480000" />
		<rect x="0.960000" y="0.000000" width="0.480000" height="0.480000" />
		<rect x="0.960000" y="0.960000" width="0.480000" height="1.440000" />
		<rect x="0.960000" y="2.880000" width="0.480000" height="0.480000" />
		<rect x="0.960000" y="6.240000" width="0.480000" height="0.480000" />
		<rect x="0.960000" y="7.200000" width="0.480000" height="0.480000" />
		<rect x="0.960000" y="8.640000" width="0.480000" height="0.480000" />
		<rect x="0.960000" y="9.600000" width="0.480000" height="1.440000" />
		<rect x="0.960000" y="11.520000" width="0.480000" height="0.480000" />
		<rect x="1.440000" y="0.000000" width="0.480000" height="0.480000" />
		<rect x="1.440000" y="0.960000" width="0.480000" height="1.440000" />
		<rect x="1.440000" y="2.880000" width="0.480000" height="0.480000" />
		<rect x="1.440000" y="4.800000" width="0.480000" height="1.920000" />
		<rect x="1.440000" y="7.200000" width="0.480000" height="0.480000" />
		<rect x="1.440000" y="8.640000" width="0.480000" height="0.480000" />
		<rect x="1.440000" y="9.600000" width="0.480000" height="1.440000" />
		<rect x="1.440000" y="11.520000" width="0.480000" height="0.480000" />
		<rect x="1.920000" y="0.000000" width="0.480000" height="0.480000" />
		<rect x="1.920000" y="0.960000" width="0.480000" height="1.440000" />
		<rect x="1.920000" y="2.880000" width="0.480000" height="0.480000" />
		<rect x="1.920000" y="4.320000" width="0.480000" height="0.480000" />
		<rect x="1.920000" y="5.280000" width="0.480000" height="1.920000" />
		<rect x="1.920000" y="8.640000" width="0.480000" height="0.480000" />
		<rect x="1.920000" y="9.600000" width="0.480000" height="1.440000" />
		<rect x="1.920000" y="11.520000" width="0.480000" height="0.480000" />
		<rect x="2.400000" y="0.000000" width="0.480000" height="0.480000" />
		<rect x="2.400000" y="2.880000" width="0.480000" height="0.480000" />
		<rect x="2.400000" y="3.840000" width="0.480000" height="0.960000" />
		<rect x="2.400000" y="5.280000" width="0.480000" height="0.960000" />
		<rect x="2.400000" y="6.720000" width="0.480000" height="0.960000" />
		<rect x="2.400000" y="8.640000" width="0.480000" height="0.480000" />
		<rect x="2.400000" y="11.520000" width="0.480000" height="0.480000" />
		<rect x="2.880000" y="0.000000" width="0.480000" height="3.360000" />
		<rect x="2.880000" y="3.840000" width="0.480000" height="0.480000" />
		<rect x="2.880000" y="4.800000" width="0.480000" height="0.480000" />
		<rect x="2.880000" y="5.760000" width="0.480000" height="0.480000" />
		<rect x="2.880000" y="6.720000" width="0.480000" height="0.480000" />
		<rect x="2.880000" y="7.680000" width="0.480000" height="0.480000" />
		<rect x="2.880000" y="8.640000" width="0.480000" height="3.360000" />
		<rect x="3.360000" y="3.840000" width="0.480000" height="0.480000" />
		<rect x="3.360000" y="4.800000" width="0.480000" height="0.480000" />
		<rect x="3.360000" y="5.760000" width="0.480000" height="0.480000" />
		<rect x="3.360000" y="6.720000" width="0.480000" height="0.960000" />
		<rect x="3.840000" y="1.440000" width="0.480000" height="0.960000" />
		<rect x="3.840000" y="2.880000" width="0.480000" height="0.480000" />
		<rect x="3.840000" y="4.320000" width="0.480000" height="0.480000" />
		<rect x="3.840000" y="7.200000" width="0.480000" height="2.400000" />
		<rect x="3.840000" y="11.040000" width="0.480000" height="0.960000" />
		<rect x="4.320000" y="0.000000" width="0.480000" height="0.480000" />
		<rect x="4.320000" y="0.960000" width="0.480000" height="0.480000" />
		<rect x="4.320000" y="2.400000" width="0.480000" height="0.480000" />
		<rect x="4.320000" y="3.360000" width="0.480000" height="0.960000" />
		<rect x="4.320000" y="4.800000" width="0.480000" height="0.480000" />
		<rect x="4.320000" y="5.760000" width="0.480000" height="0.480000" />
		<rect x="4.320000" y="6.720000" width="0.480000" height="1.440000" />
		<rect x="4.320000" y="8.640000" width="0.480000" height="1.440000" />
		<rect x="4.320000" y="11.040000" width="0.480000" height="0.480000" />
		<rect x="4.800000" y="0.000000" width="0.480000" height="0.480000" />
		<rect x="4.800000" y="0.960000" width="0.480000" height="2.400000" />
		<rect x="4.800000" y="3.840000" width="0.480000" height="0.960000" />
		<rect x="4.800000" y="5.280000" width="0.480000" height="2.400000" />
		<rect x="4.800000" y="8.160000" width="0.480000" height="1.920000" />
		<rect x="4.800000" y="10.560000" width="0.480000" height="0.960000" />
		<rect x="5.280000" y="0.000000" width="0.480000" height="1.920000" />
		<rect x="5.280000" y="4.800000" width="0.480000" height="0.960000" />
		<rect x="5.280000" y="8.160000" width="0.480000" height="1.440000" />
		<rect x="5.280000" y="10.080000" width="0.480000" height="0.480000" />
		<rect x="5.280000" y="11.520000" width="0.480000" height="0.480000" />
		<rect x="5.760000" y="0.480000" width="0.480000" height="0.480000" />
		<rect x="5.760000" y="1.920000" width="0.480000" height="0.480000" />
		<rect x="5.760000" y="2.880000" width="0.480000" height="1.440000" />
		<rect x="5.760000" y="4.800000" width="0.480000" height="0.480000" />
		<rect x="5.760000" y="5.760000" width="0.480000" height="1.440000" />
		<rect x="5.760000" y="8.640000" width="0.480000" height="0.960000" />
		<rect x="5.760000" y="11.040000" width="0.480000" height="0.960000" />
		<rect x="6.240000" y="1.440000" width="0.480000" height="1.440000" />
		<rect x="6.240000" y="3.840000" width="0.480000" height="0.480000" />
		<rect x="6.240000" y="4.800000" width="0.480000" height="0.480000" />
		<rect x="6.240000" y="6.240000" width="0.480000" height="0.960000" />
		<rect x="6.240000" y="7.680000" width="0.480000" height="1.440000" />
		<rect x="6.240000" y="9.600000" width="0.480000" height="0.480000" />
		<rect x="6.240000" y="10.560000" width="0.480000" height="0.480000" />
		<rect x="6.720000" y="0.000000" width="0.480000" height="0.960000" />
		<rect x="6.720000" y="2.400000" width="0.480000" height="2.400000" />
		<rect x="6.720000" y="5.280000" width="0.480000" height="0.480000" />
		<rect x="6.720000" y="9.120000" width="0.480000" height="1.440000" />
		<rect x="6.720000" y="11.040000" width="0.480000" height="0.480000" />
		<rect x="7.200000" y="0.960000" width="0.480000" height="0.960000" />
		<rect x="7.200000" y="3.840000" width="0.480000" height="3.360000" />
		<rect x="7.200000" y="9.600000" width="0.480000" height="0.960000" />
		<rect x="7.680000" y="0.960000" width="0.480000" height="3.360000" />
		<rect x="7.680000" y="5.760000" width="0.480000" height="1.440000" />
		<rect x="7.680000" y="7.680000" width="0.480000" height="2.880000" />
		<rect x="7.680000" y="11.040000" width="0.480000" height="0.960000" />
		<rect x="8.160000" y="4.320000" width="0.480000" height="0.960000" />
		<rect x="8.160000" y="7.200000" width="0.480000" height="0.960000" />
		<rect x="8.160000" y="9.600000" width="0.480000" height="0.960000" />
		<rect x="8.160000" y="11.040000" width="0.480000" height="0.480000" />
		<rect x="8.640000" y="0.000000" width="0.480000" height="3.360000" />
		<rect x="8.640000" y="4.800000" width="0.480000" height="1.440000" />
		<rect x="8.640000" y="6.720000" width="0.480000" height="1.440000" />
		<rect x="8.640000" y="8.640000" width="0.480000" height="0.480000" />
		<rect x="8.640000" y="9.600000" width="0.480000" height="0.960000" />
		<rect x="8.640000" y="11.040000" width="0.480000" height="0.480000" />
		<rect x="9.120000" y="0.000000" width="0.480000" height="0.480000" />
		<rect x="9.120000" y="2.880000" width="0.480000" height="0.480000" />
		<rect x="9.120000" y="4.320000" width="0.480000" height="0.480000" />
		<rect x="9.120000" y="5.280000" width="0.480000" height="1.920000" />
		<rect x="9.120000" y="7.680000" width="0.480000" height="0.480000" />
		<rect x="9.120000" y="9.600000" width="0.480000" height="0.480000" />
		<rect x="9.120000" y="10.560000" width="0.480000" height="0.480000" />
		<rect x="9.600000" y="0.000000" width="0.480000" height="0.480000" />
		<rect x="9.600000" y="0.960000" width="0.480000" height="1.440000" />
		<rect x="9.600000" y="2.880000" width="0.480000" height="0.480000" />
		<rect x="9.600000" y="3.840000" width="0.480000" height="1.920000" />
		<rect x="9.600000" y="7.680000" width="0.480000" height="2.400000" />
		<rect x="9.600000" y="11.040000" width="0.480000" height="0.960000" />
		<rect x="10.080000" y="0.000000" width="0.480000" height="0.480000" />
		<rect x="10.080000" y="0.960000" width="0.480000" height="1.440000" />
		<rect x="10.080000" y="2.880000" width="0.480000" height="0.480000" />
		<rect x="10.080000" y="3.840000" width="0.480000" height="0.480000" />
		<rect x="10.080000" y="5.280000" width="0.480000" height="0.480000" />
		<rect x="10.080000" y="7.200000" width="0.480000" height="0.480000" />
		<rect x="10.080000" y="9.600000" width="0.480000" height="0.960000" />
		<rect x="10.080000" y="11.040000" width="0.480000" height="0.480000" />
		<rect x="10.560000" y="0.000000" width="0.480000" height="0.480000" />
		<rect x="10.560000" y="0.960000" width="0.480000" height="1.440000" />
		<rect x="10.560000" y="2.880000" width="0.480000" height="0.480000" />
		<rect x="10.560000" y="4.320000" width="0.480000" height="0.480000" />
		<rect x="10.560000" y="6.720000" width="0.480000" height="1.440000" />
		<rect x="10.560000" y="9.600000" width="0.480000" height="0.480000" />
		<rect x="11.040000" y="0.000000" width="0.480000" height="0.480000" />
		<rect x="11.040000" y="2.880000" width="0.480000" height="0.480000" />
		<rect x="11.040000" y="4.800000" width="0.480000" height="0.480000" />
		<rect x="11.040000" y="5.760000" width="0.480000" height="1.440000" />
		<rect x="11.040000" y="10.080000" width="0.480000" height="0.480000" />
		<rect x="11.520000" y="0.000000" width="0.480000" height="3.360000" />
		<rect x="11.520000" y="4.800000" width="0.480000" height="0.480000" />
		<rect x="11.520000" y="5.760000" width="0.480000" height="0.480000" />
		<rect x="11.520000" y="6.720000" width="0.480000" height="0.480000" />
		<rect x="11.520000" y="7.680000" width="0.480000" height="0.480000" />
		<rect x="11.520000" y="8.640000" width="0.480000" height="0.480000" />
		<rect x="11.520000" y="10.080000" width="0.480000" height="1.920000" />
	</g>
</svg>
