<?xml version="1.0" standalone="no" ?>
<!DOCTYPE svg PUBLIC "-//W3C//DTD SVG 1.1//EN" "http://www.w3.org/Graphics/SVG/1.1/DTD/svg11.dtd">
<svg width="720.000000" height="480.000000" viewBox="0 0 720.000000 480.000000" version="1.1" xmlns="http://www.w3.org/2000/svg">
	<desc>nehru</desc>
	<rect x="0" y="0" width="720.000000" height="480.000000" fill="#ffffff" stroke="none" stroke-width="0" stroke-linecap="square" />
	<g id="bars" fill="#000000" stroke="none" stroke-width="0" stroke-linecap="square">
		<rect x="0.000000" y="0.000000" width="16.000000" height="480.000000" />
		<rect x="24.000000" y="0.000000" width="8.000000" height="480.000000" />
		<rect x="48.000000" y="0.000000" width="8.000000" height="480.000000" />
		<rect x="88.000000" y="0.000000" width="16.000000" height="480.000000" />
		<rect x="136.000000" y="0.000000" width="8.000000" height="480.000000" />
		<rect x="152.000000" y="0.000000" width="8.000000" height="480.000000" />
		<rect x="176.000000" y="0.000000" width="8.000000" height="480.000000" />
		<rect x="192.000000" y="0.000000" width="16.000000" height="480.000000" />
		<rect x="224.000000" y="0.000000" width="8.000000" height="480.000000" />
		<rect x="264.000000" y="0.000000" width="8.000000" height="480.000000" />
		<rect x="288.000000" y="0.000000" width="16.000000" height="480.000000" />
		<rect x="336.000000" y="0.000000" width="8.000000" height="480.000000" />
		<rect x="352.000000" y="0.000000" width="8.000000" height="480.000000" />
		<rect x="376.000000" y="0.000000" width="8.000000" height="480.000000" />
		<rect x="400.000000" y="0.000000" width="32.000000" height="480.000000" />
		<rect x="440.000000" y="0.000000" width="8.000000" height="480.000000" />
		<rect x="464.000000" y="0.000000" width="32.000000" height="480.000000" />
		<rect x="512.000000" y="0.000000" width="8.000000" height="480.000000" />
		<rect x="528.000000" y="0.000000" width="16.000000" height="480.000000" />
		<rect x="552.000000" y="0.000000" width="24.000000" height="480.000000" />
		<rect x="584.000000" y="0.000000" width="24.000000" height="480.000000" />
		<rect x="616.000000" y="0.000000" width="16.000000" height="480.000000" />
		<rect x="656.000000" y="0.000000" width="24.000000" height="480.000000" />
		<rect x="688.000000" y="0.000000" width="8.000000" height="480.000000" />
		<rect x="704.000000" y="0.000000" width="16.000000" height="480.000000" />
	</g>
</svg>
