<svg xmlns="http://www.w3.org/2000/svg" width="100.000000pt" height="100.000000pt" viewBox="0 0 100.000000 100.000000" preserveAspectRatio="xMidYMid meet"><metadata>
Created by potrace 1.16, written by Peter Selinger 2001-2019
</metadata><g transform="translate(0.000000,100.000000) scale(0.100000,-0.100000)" fill="#000000" stroke="none"><path d="M7 853 c-4 -3 -7 -140 -7 -304 0 -332 -6 -309 76 -309 38 0 44 3 50 24 3 13 20 37 37 54 66 64 161 46 202 -36 l20 -41 86 -1 c62 0 90 4 98 14 8 9 11 99 9 307 l-3 294 -281 3 c-154 1 -283 -1 -287 -5z"></path><path d="M622 698 c-9 -9 -12 -70 -12 -225 0 -209 0 -213 22 -224 13 -7 23 -8 25 -3 44 132 197 152 250 33 12 -28 23 -39 39 -39 53 0 54 2 54 149 l-1 136 -67 90 -67 90 -115 3 c-81 2 -119 -1 -128 -10z m254 -136 c22 -31 44 -63 48 -69 6 -10 -15 -13 -88 -13 l-96 0 0 70 0 70 48 0 c46 -1 48 -2 88 -58z"></path><path d="M191 294 c-65 -54 -28 -154 57 -154 59 0 92 30 92 83 -1 87 -83 127 -149 71z"></path><path d="M731 294 c-38 -32 -43 -87 -10 -128 29 -36 99 -37 134 -1 38 37 35 95 -6 129 -17 15 -43 26 -59 26 -16 0 -42 -11 -59 -26z"></path></g></svg>