<?xml version="1.0" standalone="no" ?>
<!DOCTYPE svg PUBLIC "-//W3C//DTD SVG 1.1//EN" "http://www.w3.org/Graphics/SVG/1.1/DTD/svg11.dtd">
<svg width="12.000000" height="12.000000" viewBox="0 0 12.000000 12.000000" version="1.1" xmlns="http://www.w3.org/2000/svg">
	<desc>SKU-MGLASS-1234</desc>
	<rect x="0" y="0" width="12.000000" height="12.000000" fill="#ffffff" stroke="none" stroke-width="0" stroke-linecap="square" />
	<g id="bars" fill="#000000" stroke="none" stroke-width="0" stroke-linecap="square">
		<rect x="0.000000" y="0.000000" width="4.000000" height="0.571429" />
		<rect x="5.142857" y="0.000000" width="0.571429" height="0.571429" />
		<rect x="6.285714" y="0.000000" width="1.142857" height="0.571429" />
		<rect x="8.000000" y="0.000000" width="4.000000" height="0.571429" />
		<rect x="0.000000" y="0.571429" width="0.571429" height="0.571429" />
		<rect x="3.428571" y="0.571429" width="0.571429" height="0.571429" />
		<rect x="4.571429" y="0.571429" width="1.142857" height="0.571429" />
		<rect x="6.285714" y="0.571429" width="0.571429" height="0.571429" />
		<rect x="8.000000" y="0.571429" width="0.571429" height="0.571429" />
		<rect x="11.428571" y="0.571429" width="0.571429" height="0.571429" />
		<rect x="0.000000" y="1.142857" width="0.571429" height="0.571429" />
		<rect x="1.142857" y="1.142857" width="1.714286" height="0.571429" />
		<rect x="3.428571" y="1.142857" width="0.571429" height="0.571429" />
		<rect x="4.571429" y="1.142857" width="1.142857" height="0.571429" />
		<rect x="6.857143" y="1.142857" width="0.571429" height="0.571429" />
		<rect x="8.000000" y="1.142857" width="0.571429" height="0.571429" />
		<rect x="9.142857" y="1.142857" width="1.714286" height="0.571429" />
		<rect x="11.428571" y="1.142857" width="0.571429" height="0.571429" />
		<rect x="0.000000" y="1.714286" width="0.571429" height="0.571429" />
		<rect x="1.142857" y="1.714286" width="1.714286" height="0.571429" />
		<rect x="3.428571" y="1.714286" width="0.571429" height="0.571429" />
		<rect x="5.142857" y="1.714286" width="0.571429" height="0.571429" />
		<rect x="6.285714" y="1.714286" width="0.571429" height="0.571429" />
		<rect x="8.000000" y="1.714286" width="0.571429" height="0.571429" />
		<rect x="9.142857" y="1.714286" width="1.714286" height="0.571429" />
		<rect x="11.428571" y="1.714286" width="0.571429" height="0.571429" />
		<rect x="0.000000" y="2.285714" width="0.571429" height="0.571429" />
		<rect x="1.142857" y="2.285714" width="1.714286" height="0.571429" />
		<rect x="3.428571" y="2.285714" width="0.571429" height="0.571429" />
		<rect x="4.571429" y="2.285714" width="0.571429" height="0.571429" />
		<rect x="6.857143" y="2.285714" width="0.571429" height="0.571429" />
		<rect x="8.000000" y="2.285714" width="0.571429" height="0.571429" />
		<rect x="9.142857" y="2.285714" width="1.714286" height="0.571429" />
		<rect x="11.428571" y="2.285714" width="0.571429" height="0.571429" />
		<rect x="0.000000" y="2.857143" width="0.571429" height="0.571429" />
		<rect x="3.428571" y="2.857143" width="0.571429" height="0.571429" />
		<rect x="4.571429" y="2.857143" width="0.571429" height="0.571429" />
		<rect x="6.285714" y="2.857143" width="1.142857" height="0.571429" />
		<rect x="8.000000" y="2.857143" width="0.571429" height="0.571429" />
		<rect x="11.428571" y="2.857143" width="0.571429" height="0.571429" />
		<rect x="0.000000" y="3.428571" width="4.000000" height="0.571429" />
		<rect x="4.571429" y="3.428571" width="0.571429" height="0.571429" />
		<rect x="5.714286" y="3.428571" width="0.571429" height="0.571429" />
		<rect x="6.857143" y="3.428571" width="0.571429" height="0.571429" />
		<rect x="8.000000" y="3.428571" width="4.000000" height="0.571429" />
		<rect x="4.571429" y="4.000000" width="2.857143" height="0.571429" />
		<rect x="0.000000" y="4.571429" width="1.142857" height="0.571429" />
		<rect x="1.714286" y="4.571429" width="0.571429" height="0.571429" />
		<rect x="3.428571" y="4.571429" width="1.142857" height="0.571429" />
		<rect x="5.142857" y="4.571429" width="1.142857" height="0.571429" />
		<rect x="8.000000" y="4.571429" width="1.714286" height="0.571429" />
		<rect x="10.285714" y="4.571429" width="1.142857" height="0.571429" />
		<rect x="0.571429" y="5.142857" width="0.571429" height="0.571429" />
		<rect x="1.714286" y="5.142857" width="1.714286" height="0.571429" />
		<rect x="5.142857" y="5.142857" width="1.142857" height="0.571429" />
		<rect x="8.571429" y="5.142857" width="2.857143" height="0.571429" />
		<rect x="1.714286" y="5.714286" width="2.285714" height="0.571429" />
		<rect x="5.142857" y="5.714286" width="0.571429" height="0.571429" />
		<rect x="6.857143" y="5.714286" width="1.142857" height="0.571429" />
		<rect x="8.571429" y="5.714286" width="1.142857" height="0.571429" />
		<rect x="10.857143" y="5.714286" width="1.142857" height="0.571429" />
		<rect x="0.000000" y="6.285714" width="1.142857" height="0.571429" />
		<rect x="4.000000" y="6.285714" width="1.142857" height="0.571429" />
		<rect x="6.285714" y="6.285714" width="0.571429" height="0.571429" />
		<rect x="8.571429" y="6.285714" width="0.571429" height="0.571429" />
		<rect x="9.714286" y="6.285714" width="2.285714" height="0.571429" />
		<rect x="0.000000" y="6.857143" width="2.285714" height="0.571429" />
		<rect x="2.857143" y="6.857143" width="3.428571" height="0.571429" />
		<rect x="6.857143" y="6.857143" width="0.571429" height="0.571429" />
		<rect x="8.000000" y="6.857143" width="0.571429" height="0.571429" />
		<rect x="9.714286" y="6.857143" width="1.142857" height="0.571429" />
		<rect x="11.428571" y="6.857143" width="0.571429" height="0.571429" />
		<rect x="4.571429" y="7.428571" width="0.571429" height="0.571429" />
		<rect x="5.714286" y="7.428571" width="1.142857" height="0.571429" />
		<rect x="8.571429" y="7.428571" width="1.142857" height="0.571429" />
		<rect x="10.285714" y="7.428571" width="1.142857" height="0.571429" />
		<rect x="0.000000" y="8.000000" width="4.000000" height="0.571429" />
		<rect x="4.571429" y="8.000000" width="0.571429" height="0.571429" />
		<rect x="7.428571" y="8.000000" width="0.571429" height="0.571429" />
		<rect x="9.142857" y="8.000000" width="1.142857" height="0.571429" />
		<rect x="10.857143" y="8.000000" width="1.142857" height="0.571429" />
		<rect x="0.000000" y="8.571429" width="0.571429" height="0.571429" />
		<rect x="3.428571" y="8.571429" width="0.571429" height="0.571429" />
		<rect x="5.714286" y="8.571429" width="1.714286" height="0.571429" />
		<rect x="10.285714" y="8.571429" width="0.571429" height="0.571429" />
		<rect x="11.428571" y="8.571429" width="0.571429" height="0.571429" />
		<rect x="0.000000" y="9.142857" width="0.571429" height="0.571429" />
		<rect x="1.142857" y="9.142857" width="1.714286" height="0.571429" />
		<rect x="3.428571" y="9.142857" width="0.571429" height="0.571429" />
		<rect x="6.285714" y="9.142857" width="0.571429" height="0.571429" />
		<rect x="8.571429" y="9.142857" width="1.714286" height="0.571429" />
		<rect x="11.428571" y="9.142857" width="0.571429" height="0.571429" />
		<rect x="0.000000" y="9.714286" width="0.571429" height="0.571429" />
		<rect x="1.142857" y="9.714286" width="1.714286" height="0.571429" />
		<rect x="3.428571" y="9.714286" width="0.571429" height="0.571429" />
		<rect x="4.571429" y="9.714286" width="1.714286" height="0.571429" />
		<rect x="8.000000" y="9.714286" width="0.571429" height="0.571429" />
		<rect x="10.285714" y="9.714286" width="1.714286" height="0.571429" />
		<rect x="0.000000" y="10.285714" width="0.571429" height="0.571429" />
		<rect x="1.142857" y="10.285714" width="1.714286" height="0.571429" />
		<rect x="3.428571" y="10.285714" width="0.571429" height="0.571429" />
		<rect x="6.857143" y="10.285714" width="0.571429" height="0.571429" />
		<rect x="8.000000" y="10.285714" width="1.142857" height="0.571429" />
		<rect x="9.714286" y="10.285714" width="0.571429" height="0.571429" />
		<rect x="11.428571" y="10.285714" width="0.571429" height="0.571429" />
		<rect x="0.000000" y="10.857143" width="0.571429" height="0.571429" />
		<rect x="3.428571" y="10.857143" width="0.571429" height="0.571429" />
		<rect x="4.571429" y="10.857143" width="1.142857" height="0.571429" />
		<rect x="6.285714" y="10.857143" width="0.571429" height="0.571429" />
		<rect x="7.428571" y="10.857143" width="0.571429" height="0.571429" />
		<rect x="9.142857" y="10.857143" width="1.714286" height="0.571429" />
		<rect x="11.428571" y="10.857143" width="0.571429" height="0.571429" />
		<rect x="0.000000" y="11.428571" width="4.000000" height="0.571429" />
		<rect x="4.571429" y="11.428571" width="0.571429" height="0.571429" />
		<rect x="6.285714" y="11.428571" width="1.142857" height="0.571429" />
		<rect x="8.571429" y="11.428571" width="0.571429" height="0.571429" />
		<rect x="10.285714" y="11.428571" width="0.571429" height="0.571429" />
		<rect x="0.000000" y="0.000000" width="0.571429" height="4.000000" />
		<rect x="0.000000" y="4.571429" width="0.571429" height="0.571429" />
		<rect x="0.000000" y="6.285714" width="0.571429" height="1.142857" />
		<rect x="0.000000" y="8.000000" width="0.571429" height="4.000000" />
		<rect x="0.571429" y="0.000000" width="0.571429" height="0.571429" />
		<rect x="0.571429" y="3.428571" width="0.571429" height="0.571429" />
		<rect x="0.571429" y="4.571429" width="0.571429" height="1.142857" />
		<rect x="0.571429" y="6.285714" width="0.571429" height="1.142857" />
		<rect x="0.571429" y="8.000000" width="0.571429" height="0.571429" />
		<rect x="0.571429" y="11.428571" width="0.571429" height="0.571429" />
		<rect x="1.142857" y="0.000000" width="0.571429" height="0.571429" />
		<rect x="1.142857" y="1.142857" width="0.571429" height="1.714286" />
		<rect x="1.142857" y="3.428571" width="0.571429" height="0.571429" />
		<rect x="1.142857" y="6.857143" width="0.571429" height="0.571429" />
		<rect x="1.142857" y="8.000000" width="0.571429" height="0.571429" />
		<rect x="1.142857" y="9.142857" width="0.571429" height="1.714286" />
		<rect x="1.142857" y="11.428571" width="0.571429" height="0.571429" />
		<rect x="1.714286" y="0.000000" width="0.571429" height="0.571429" />
		<rect x="1.714286" y="1.142857" width="0.571429" height="1.714286" />
		<rect x="1.714286" y="3.428571" width="0.571429" height="0.571429" />
		<rect x="1.714286" y="4.571429" width="0.571429" height="1.714286" />
		<rect x="1.714286" y="6.857143" width="0.571429" height="0.571429" />
		<rect x="1.714286" y="8.000000" width="0.571429" height="0.571429" />
		<rect x="1.714286" y="9.142857" width="0.571429" height="1.714286" />
		<rect x="1.714286" y="11.428571" width="0.571429" height="0.571429" />
		<rect x="2.285714" y="0.000000" width="0.571429" height="0.571429" />
		<rect x="2.285714" y="1.142857" width="0.571429" height="1.714286" />
		<rect x="2.285714" y="3.428571" width="0.571429" height="0.571429" />
		<rect x="2.285714" y="5.142857" width="0.571429" height="1.142857" />
		<rect x="2.285714" y="8.000000" width="0.571429" height="0.571429" />
		<rect x="2.285714" y="9.142857" width="0.571429" height="1.714286" />
		<rect x="2.285714" y="11.428571" width="0.571429" height="0.571429" />
		<rect x="2.857143" y="0.000000" width="0.571429" height="0.571429" />
		<rect x="2.857143" y="3.428571" width="0.571429" height="0.571429" />
		<rect x="2.857143" y="5.142857" width="0.571429" height="1.142857" />
		<rect x="2.857143" y="6.857143" width="0.571429" height="0.571429" />
		<rect x="2.857143" y="8.000000" width="0.571429" height="0.571429" />
		<rect x="2.857143" y="11.428571" width="0.571429" height="0.571429" />
		<rect x="3.428571" y="0.000000" width="0.571429" height="4.000000" />
		<rect x="3.428571" y="4.571429" width="0.571429" height="0.571429" />
		<rect x="3.428571" y="5.714286" width="0.571429" height="0.571429" />
		<rect x="3.428571" y="6.857143" width="0.571429" height="0.571429" />
		<rect x="3.428571" y="8.000000" width="0.571429" height="4.000000" />
		<rect x="4.000000" y="4.571429" width="0.571429" height="0.571429" />
		<rect x="4.000000" y="6.285714" width="0.571429" height="1.142857" />
		<rect x="4.571429" y="0.571429" width="0.571429" height="1.142857" />
		<rect x="4.571429" y="2.285714" width="0.571429" height="2.285714" />
		<rect x="4.571429" y="6.285714" width="0.571429" height="2.285714" />
		<rect x="4.571429" y="9.714286" width="0.571429" height="0.571429" />
		<rect x="4.571429" y="10.857143" width="0.571429" height="1.142857" />
		<rect x="5.142857" y="0.000000" width="0.571429" height="2.285714" />
		<rect x="5.142857" y="4.000000" width="0.571429" height="2.285714" />
		<rect x="5.142857" y="6.857143" width="0.571429" height="0.571429" />
		<rect x="5.142857" y="9.714286" width="0.571429" height="0.571429" />
		<rect x="5.142857" y="10.857143" width="0.571429" height="0.571429" />
		<rect x="5.714286" y="3.428571" width="0.571429" height="2.285714" />
		<rect x="5.714286" y="6.857143" width="0.571429" height="1.142857" />
		<rect x="5.714286" y="8.571429" width="0.571429" height="0.571429" />
		<rect x="5.714286" y="9.714286" width="0.571429" height="0.571429" />
		<rect x="6.285714" y="0.000000" width="0.571429" height="1.142857" />
		<rect x="6.285714" y="1.714286" width="0.571429" height="0.571429" />
		<rect x="6.285714" y="2.857143" width="0.571429" height="0.571429" />
		<rect x="6.285714" y="4.000000" width="0.571429" height="0.571429" />
		<rect x="6.285714" y="6.285714" width="0.571429" height="0.571429" />
		<rect x="6.285714" y="7.428571" width="0.571429" height="0.571429" />
		<rect x="6.285714" y="8.571429" width="0.571429" height="1.142857" />
		<rect x="6.285714" y="10.857143" width="0.571429" height="1.142857" />
		<rect x="6.857143" y="0.000000" width="0.571429" height="0.571429" />
		<rect x="6.857143" y="1.142857" width="0.571429" height="0.571429" />
		<rect x="6.857143" y="2.285714" width="0.571429" height="2.285714" />
		<rect x="6.857143" y="5.714286" width="0.571429" height="0.571429" />
		<rect x="6.857143" y="6.857143" width="0.571429" height="0.571429" />
		<rect x="6.857143" y="8.571429" width="0.571429" height="0.571429" />
		<rect x="6.857143" y="10.285714" width="0.571429" height="0.571429" />
		<rect x="6.857143" y="11.428571" width="0.571429" height="0.571429" />
		<rect x="7.428571" y="5.714286" width="0.571429" height="0.571429" />
		<rect x="7.428571" y="8.000000" width="0.571429" height="0.571429" />
		<rect x="7.428571" y="10.857143" width="0.571429" height="0.571429" />
		<rect x="8.000000" y="0.000000" width="0.571429" height="4.000000" />
		<rect x="8.000000" y="4.571429" width="0.571429" height="0.571429" />
		<rect x="8.000000" y="6.857143" width="0.571429" height="0.571429" />
		<rect x="8.000000" y="9.714286" width="0.571429" height="1.142857" />
		<rect x="8.571429" y="0.000000" width="0.571429" height="0.571429" />
		<rect x="8.571429" y="3.428571" width="0.571429" height="0.571429" />
		<rect x="8.571429" y="4.571429" width="0.571429" height="2.285714" />
		<rect x="8.571429" y="7.428571" width="0.571429" height="0.571429" />
		<rect x="8.571429" y="9.142857" width="0.571429" height="0.571429" />
		<rect x="8.571429" y="10.285714" width="0.571429" height="0.571429" />
		<rect x="8.571429" y="11.428571" width="0.571429" height="0.571429" />
		<rect x="9.142857" y="0.000000" width="0.571429" height="0.571429" />
		<rect x="9.142857" y="1.142857" width="0.571429" height="1.714286" />
		<rect x="9.142857" y="3.428571" width="0.571429" height="0.571429" />
		<rect x="9.142857" y="4.571429" width="0.571429" height="1.714286" />
		<rect x="9.142857" y="7.428571" width="0.571429" height="1.142857" />
		<rect x="9.142857" y="9.142857" width="0.571429" height="0.571429" />
		<rect x="9.142857" y="10.857143" width="0.571429" height="0.571429" />
		<rect x="9.714286" y="0.000000" width="0.571429" height="0.571429" />
		<rect x="9.714286" y="1.142857" width="0.571429" height="1.714286" />
		<rect x="9.714286" y="3.428571" width="0.571429" height="0.571429" />
		<rect x="9.714286" y="5.142857" width="0.571429" height="0.571429" />
		<rect x="9.714286" y="6.285714" width="0.571429" height="1.142857" />
		<rect x="9.714286" y="8.000000" width="0.571429" height="0.571429" />
		<rect x="9.714286" y="9.142857" width="0.571429" height="0.571429" />
		<rect x="9.714286" y="10.285714" width="0.571429" height="1.142857" />
		<rect x="10.285714" y="0.000000" width="0.571429" height="0.571429" />
		<rect x="10.285714" y="1.142857" width="0.571429" height="1.714286" />
		<rect x="10.285714" y="3.428571" width="0.571429" height="0.571429" />
		<rect x="10.285714" y="4.571429" width="0.571429" height="1.142857" />
		<rect x="10.285714" y="6.285714" width="0.571429" height="1.714286" />
		<rect x="10.285714" y="8.571429" width="0.571429" height="0.571429" />
		<rect x="10.285714" y="9.714286" width="0.571429" height="0.571429" />
		<rect x="10.285714" y="10.857143" width="0.571429" height="1.142857" />
		<rect x="10.857143" y="0.000000" width="0.571429" height="0.571429" />
		<rect x="10.857143" y="3.428571" width="0.571429" height="0.571429" />
		<rect x="10.857143" y="4.571429" width="0.571429" height="2.285714" />
		<rect x="10.857143" y="7.428571" width="0.571429" height="1.142857" />
		<rect x="10.857143" y="9.714286" width="0.571429" height="0.571429" />
		<rect x="11.428571" y="0.000000" width="0.571429" height="4.000000" />
		<rect x="11.428571" y="5.714286" width="0.571429" height="1.714286" />
		<rect x="11.428571" y="8.000000" width="0.571429" height="3.428571" />
	</g>
</svg>
