<?xml version="1.0" standalone="no" ?>
<!DOCTYPE svg PUBLIC "-//W3C//DTD SVG 1.1//EN" "http://www.w3.org/Graphics/SVG/1.1/DTD/svg11.dtd">
<svg width="1512.000000" height="480.000000" viewBox="0 0 1512.000000 480.000000" version="1.1" xmlns="http://www.w3.org/2000/svg">
	<desc>SKU-MGLASS-1234</desc>
	<rect x="0" y="0" width="1512.000000" height="480.000000" fill="#ffffff" stroke="none" stroke-width="0" stroke-linecap="square" />
	<g id="bars" fill="#000000" stroke="none" stroke-width="0" stroke-linecap="square">
		<rect x="0.000000" y="0.000000" width="16.000000" height="480.000000" />
		<rect x="24.000000" y="0.000000" width="8.000000" height="480.000000" />
		<rect x="48.000000" y="0.000000" width="8.000000" height="480.000000" />
		<rect x="88.000000" y="0.000000" width="16.000000" height="480.000000" />
		<rect x="112.000000" y="0.000000" width="24.000000" height="480.000000" />
		<rect x="144.000000" y="0.000000" width="8.000000" height="480.000000" />
		<rect x="176.000000" y="0.000000" width="8.000000" height="480.000000" />
		<rect x="192.000000" y="0.000000" width="16.000000" height="480.000000" />
		<rect x="232.000000" y="0.000000" width="24.000000" height="480.000000" />
		<rect x="264.000000" y="0.000000" width="16.000000" height="480.000000" />
		<rect x="288.000000" y="0.000000" width="24.000000" height="480.000000" />
		<rect x="320.000000" y="0.000000" width="24.000000" height="480.000000" />
		<rect x="352.000000" y="0.000000" width="8.000000" height="480.000000" />
		<rect x="376.000000" y="0.000000" width="16.000000" height="480.000000" />
		<rect x="400.000000" y="0.000000" width="24.000000" height="480.000000" />
		<rect x="440.000000" y="0.000000" width="8.000000" height="480.000000" />
		<rect x="456.000000" y="0.000000" width="24.000000" height="480.000000" />
		<rect x="488.000000" y="0.000000" width="16.000000" height="480.000000" />
		<rect x="528.000000" y="0.000000" width="16.000000" height="480.000000" />
		<rect x="552.000000" y="0.000000" width="8.000000" height="480.000000" />
		<rect x="584.000000" y="0.000000" width="8.000000" height="480.000000" />
		<rect x="616.000000" y="0.000000" width="8.000000" height="480.000000" />
		<rect x="648.000000" y="0.000000" width="16.000000" height="480.000000" />
		<rect x="672.000000" y="0.000000" width="24.000000" height="480.000000" />
		<rect x="704.000000" y="0.000000" width="8.000000" height="480.000000" />
		<rect x="720.000000" y="0.000000" width="8.000000" height="480.000000" />
		<rect x="752.000000" y="0.000000" width="16.000000" height="480.000000" />
		<rect x="792.000000" y="0.000000" width="16.000000" height="480.000000" />
		<rect x="816.000000" y="0.000000" width="24.000000" height="480.000000" />
		<rect x="848.000000" y="0.000000" width="8.000000" height="480.000000" />
		<rect x="880.000000" y="0.000000" width="16.000000" height="480.000000" />
		<rect x="904.000000" y="0.000000" width="24.000000" height="480.000000" />
		<rect x="936.000000" y="0.000000" width="8.000000" height="480.000000" />
		<rect x="968.000000" y="0.000000" width="8.000000" height="480.000000" />
		<rect x="992.000000" y="0.000000" width="16.000000" height="480.000000" />
		<rect x="1016.000000" y="0.000000" width="24.000000" height="480.000000" />
		<rect x="1056.000000" y="0.000000" width="8.000000" height="480.000000" />
		<rect x="1072.000000" y="0.000000" width="24.000000" height="480.000000" />
		<rect x="1104.000000" y="0.000000" width="32.000000" height="480.000000" />
		<rect x="1144.000000" y="0.000000" width="8.000000" height="480.000000" />
		<rect x="1160.000000" y="0.000000" width="16.000000" height="480.000000" />
		<rect x="1192.000000" y="0.000000" width="24.000000" height="480.000000" />
		<rect x="1232.000000" y="0.000000" width="8.000000" height="480.000000" />
		<rect x="1264.000000" y="0.000000" width="8.000000" height="480.000000" />
		<rect x="1280.000000" y="0.000000" width="16.000000" height="480.000000" />
		<rect x="1320.000000" y="0.000000" width="16.000000" height="480.000000" />
		<rect x="1344.000000" y="0.000000" width="16.000000" height="480.000000" />
		<rect x="1368.000000" y="0.000000" width="32.000000" height="480.000000" />
		<rect x="1408.000000" y="0.000000" width="16.000000" height="480.000000" />
		<rect x="1448.000000" y="0.000000" width="24.000000" height="480.000000" />
		<rect x="1480.000000" y="0.000000" width="8.000000" height="480.000000" />
		<rect x="1496.000000" y="0.000000" width="16.000000" height="480.000000" />
	</g>
</svg>
